
<svg width="136px" height="70px" viewBox="0 0 136 70" version="1.1" xmlns="http://www.w3.org/2000/svg" xmlns:xlink="http://www.w3.org/1999/xlink">
  <title>
    Osler Alumni Logo
  </title>
    <g id="Page-1" stroke="none" stroke-width="1" fill="none" fill-rule="evenodd">
        <g id="osler-logo" fill-rule="nonzero">
            <g id="Group" fill="#424242">
                <path d="M29.3,71.6 C22.3,71.6 17.3,76.6 17.3,83.6 L17.3,89.1 C17.3,96.1 22.3,101.1 29.3,101.1 C36.2,101.1 41.3,96.1 41.3,89.1 L41.3,83.6 C41.3,76.7 36.2,71.6 29.3,71.6 Z" id="Path"></path>
                <path d="M98.9,129 L98.9,129 C99.1,125 96.6,121.4 94.5,119.2 C88.9,113.2 79,108.8 70.6,108.5 C62.6,108.3 53.3,112 47.4,117.7 C44.9,120.2 41.9,124.1 41.9,129 L41.9,129 L41.9,179.5 C49.6,182.1 57.5,183.4 65.6,183.2 C69.5,183.1 73.5,182.7 77.6,181.9 C85.4,180.4 92.5,177.9 98.9,174.6 L98.9,129 L98.9,129 Z" id="Path"></path>
                <path d="M70.4,65.1 C63.4,65.1 58.4,70.1 58.4,77.1 L58.4,82.6 C58.4,89.5 63.4,94.6 70.4,94.6 C77.3,94.6 82.4,89.6 82.4,82.6 L82.4,77.1 C82.4,70.2 77.4,65.1 70.4,65.1 Z" id="Path"></path>
                <path d="M123,89.1 L123,83.6 C123,76.7 118,71.6 111,71.6 C104,71.6 99,76.6 99,83.6 L99,89.1 C99,96.1 104,101.1 111,101.1 C118,101.1 123,96.1 123,89.1 Z" id="Path"></path>
                <path d="M129.6,124.2 C123.8,118.5 114.5,114.8 106.4,115 L106.3,111.5 C115.2,111.3 125.5,115.4 132,121.7 C134.2,123.8 135.8,126.1 136.9,128.4 C143.1,111.4 144.3,93.6 141,75.4 C136.6,50.8 125.9,29.7 107.4,13 C101.8,7.9 95.9,3.7 89.8,0.4 C38.8,9 0,53.4 0,106.8 C0,114.7 0.9,122.3 2.5,129.7 C3.6,126.9 5.4,124.2 8,121.7 C14.5,115.4 24.8,111.3 33.7,111.5 L33.6,115 C25.6,114.8 16.3,118.5 10.4,124.2 C7.9,126.7 4.9,130.6 4.9,135.5 L4.9,138.9 C8,149 12.6,158.4 18.3,167 C20.5,168.6 22.7,170.1 25.1,171.6 C29.5,174.3 33.9,176.5 38.5,178.3 L38.5,129 L38.5,129 C38.5,124.2 40.8,119.4 45.1,115.2 C51.6,108.9 61.9,104.8 70.8,105 C80.2,105.2 90.8,110 97.1,116.8 C100.7,120.7 102.6,124.9 102.4,129 L102.4,129 L102.4,172.6 C115.4,164.8 125.5,153 132.9,138 C133.6,136.5 134.3,135 135,133.5 C134.2,129.5 131.7,126.3 129.6,124.2 Z M44.8,89.1 C44.8,97.9 38.1,104.6 29.3,104.6 C20.5,104.6 13.8,97.9 13.8,89.1 L13.8,83.6 C13.8,74.8 20.5,68.1 29.3,68.1 C38.1,68.1 44.8,74.8 44.8,83.6 L44.8,89.1 Z M85.9,82.6 C85.9,91.4 79.2,98.1 70.4,98.1 C61.6,98.1 54.9,91.4 54.9,82.6 L54.9,77.1 C54.9,68.3 61.6,61.6 70.4,61.6 C79.2,61.6 85.9,68.3 85.9,77.1 L85.9,82.6 Z M95.5,89.1 L95.5,83.6 C95.5,74.8 102.2,68.1 111,68.1 C119.8,68.1 126.5,74.8 126.5,83.6 L126.5,89.1 C126.5,97.9 119.9,104.6 111,104.6 C102.2,104.6 95.5,97.9 95.5,89.1 Z" id="Shape"></path>
            </g>
            <path d="M123.9,0 C129.2,3.6 134.3,7.8 139.2,12.5 C157.5,30.1 168.2,51.9 170.5,77.7 C170.7,80.4 170.9,83.1 170.9,85.8 L170.9,86 C171.4,113.2 162.1,137.1 143.8,157.6 C125.3,178.3 102,189.7 75,193.3 C71.1,193.8 67.1,193.9 62.4,194.3 C55.5,194.2 48.8,193.6 42.3,192.6 C60.5,206.6 83.3,214.9 108,214.9 C167.7,214.9 216,166.5 216,106.9 C216,52.6 176,7.7 123.9,0 Z" id="Path" fill="#424242"></path>
            <path d="M254.3,56.8 C254.3,51.3 255.8,47.1 258.7,44 C261.6,40.9 265.4,39.4 270.1,39.4 C273.1,39.4 275.9,40.1 278.3,41.6 C280.7,43.1 282.6,45.1 283.9,47.7 C285.2,50.3 285.8,53.2 285.8,56.5 C285.8,59.8 285.1,62.8 283.8,65.5 C282.5,68.2 280.5,70.1 278.1,71.5 C275.6,72.9 273,73.5 270.1,73.5 C267,73.5 264.2,72.8 261.8,71.3 C259.4,69.8 257.5,67.8 256.3,65.2 C255.1,62.6 254.3,59.7 254.3,56.8 Z M258.8,56.9 C258.8,60.9 259.9,64 262,66.3 C264.1,68.6 266.8,69.7 270,69.7 C273.3,69.7 276,68.5 278.1,66.2 C280.2,63.9 281.3,60.6 281.3,56.4 C281.3,53.7 280.8,51.4 279.9,49.4 C279,47.4 277.7,45.9 275.9,44.8 C274.2,43.7 272.2,43.1 270,43.1 C266.9,43.1 264.3,44.2 262,46.3 C259.9,48.4 258.8,51.9 258.8,56.9 Z M289.3,65.7 L293.3,65.1 C293.5,66.7 294.1,67.9 295.2,68.8 C296.2,69.7 297.7,70.1 299.5,70.1 C301.4,70.1 302.7,69.7 303.6,69 C304.5,68.2 304.9,67.4 304.9,66.3 C304.9,65.4 304.5,64.7 303.7,64.1 C303.1,63.7 301.8,63.3 299.6,62.7 C296.6,62 294.6,61.3 293.4,60.8 C292.3,60.3 291.4,59.5 290.8,58.5 C290.2,57.5 289.9,56.5 289.9,55.3 C289.9,54.2 290.1,53.3 290.6,52.3 C291.1,51.4 291.7,50.6 292.6,50 C293.2,49.5 294.1,49.1 295.2,48.8 C296.3,48.5 297.4,48.3 298.7,48.3 C300.6,48.3 302.2,48.6 303.6,49.1 C305,49.6 306.1,50.4 306.7,51.3 C307.4,52.2 307.8,53.5 308.1,55 L304.1,55.5 C303.9,54.3 303.4,53.3 302.5,52.6 C301.6,51.9 300.4,51.6 298.9,51.6 C297,51.6 295.7,51.9 294.9,52.5 C294.1,53.1 293.7,53.8 293.7,54.7 C293.7,55.2 293.9,55.7 294.2,56.1 C294.5,56.5 295,56.9 295.7,57.2 C296.1,57.3 297.3,57.7 299.3,58.2 C302.2,59 304.2,59.6 305.3,60.1 C306.4,60.6 307.3,61.3 308,62.2 C308.6,63.1 309,64.3 309,65.7 C309,67 308.6,68.3 307.8,69.5 C307,70.7 305.9,71.6 304.4,72.3 C302.9,73 301.2,73.3 299.4,73.3 C296.3,73.3 293.9,72.7 292.3,71.4 C290.7,70.1 289.7,68.2 289.3,65.7 Z M313.8,72.8 L313.8,39.9 L317.8,39.9 L317.8,72.8 L313.8,72.8 Z M340.4,65.2 L344.6,65.7 C343.9,68.1 342.7,70 340.9,71.4 C339.1,72.7 336.8,73.4 334.1,73.4 C330.6,73.4 327.8,72.3 325.8,70.2 C323.8,68.1 322.7,65 322.7,61.2 C322.7,57.2 323.7,54.1 325.8,51.9 C327.9,49.7 330.5,48.6 333.8,48.6 C337,48.6 339.6,49.7 341.6,51.9 C343.6,54.1 344.6,57.1 344.6,61.1 C344.6,61.3 344.6,61.7 344.6,62.2 L326.8,62.2 C326.9,64.8 327.7,66.8 329,68.2 C330.3,69.6 332,70.3 334,70.3 C335.5,70.3 336.7,69.9 337.8,69.1 C339,68.1 339.8,66.9 340.4,65.2 Z M327.2,58.6 L340.5,58.6 C340.3,56.6 339.8,55.1 339,54.1 C337.7,52.5 336,51.8 334,51.8 C332.1,51.8 330.6,52.4 329.3,53.7 C328,55 327.3,56.5 327.2,58.6 Z M349.6,72.8 L349.6,49 L353.2,49 L353.2,52.6 C354.1,50.9 355,49.8 355.8,49.3 C356.6,48.8 357.5,48.5 358.4,48.5 C359.8,48.5 361.1,48.9 362.6,49.8 L361.2,53.6 C360.2,53 359.2,52.7 358.2,52.7 C357.3,52.7 356.5,53 355.8,53.5 C355.1,54 354.6,54.8 354.3,55.7 C353.9,57.1 353.6,58.7 353.6,60.4 L353.6,72.9 L349.6,72.9 L349.6,72.8 Z M252,118.5 L264.6,85.6 L269.3,85.6 L282.8,118.5 L277.8,118.5 L274,108.5 L260.2,108.5 L256.6,118.5 L252,118.5 Z M261.5,105 L272.7,105 L269.3,95.9 C268.3,93.1 267.5,90.9 267,89.1 C266.6,91.2 266,93.3 265.2,95.4 L261.5,105 Z M285.7,118.5 L285.7,85.6 L289.7,85.6 L289.7,118.5 L285.7,118.5 Z M311.6,118.5 L311.6,115 C309.7,117.7 307.2,119 304,119 C302.6,119 301.3,118.7 300.1,118.2 C298.9,117.7 298,117 297.4,116.2 C296.8,115.4 296.4,114.4 296.2,113.2 C296,112.4 296,111.1 296,109.4 L296,94.7 L300,94.7 L300,107.9 C300,110 300.1,111.4 300.2,112.2 C300.5,113.3 301,114.1 301.8,114.7 C302.6,115.3 303.6,115.6 304.9,115.6 C306.2,115.6 307.3,115.3 308.3,114.7 C309.4,114.1 310.1,113.2 310.6,112.2 C311,111.1 311.3,109.6 311.3,107.5 L311.3,94.7 L315.3,94.7 L315.3,118.6 L311.6,118.6 L311.6,118.5 Z M321.6,118.5 L321.6,94.7 L325.2,94.7 L325.2,98 C325.9,96.8 326.9,95.9 328.2,95.2 C329.4,94.5 330.9,94.1 332.4,94.1 C334.2,94.1 335.6,94.5 336.7,95.2 C337.8,95.9 338.6,97 339.1,98.3 C341,95.5 343.4,94.1 346.5,94.1 C348.9,94.1 350.7,94.8 352,96.1 C353.3,97.4 353.9,99.4 353.9,102.2 L353.9,118.6 L349.9,118.6 L349.9,103.6 C349.9,102 349.8,100.8 349.5,100.1 C349.2,99.4 348.8,98.8 348.1,98.4 C347.4,98 346.6,97.7 345.7,97.7 C344,97.7 342.6,98.3 341.5,99.4 C340.4,100.5 339.8,102.3 339.8,104.8 L339.8,118.7 L335.8,118.7 L335.8,103 C335.8,101.2 335.5,99.9 334.8,99 C334.1,98.1 333.1,97.7 331.6,97.7 C330.5,97.7 329.4,98 328.4,98.6 C327.4,99.2 326.7,100.1 326.3,101.2 C325.9,102.3 325.6,104 325.6,106.2 L325.6,118.6 L321.6,118.6 L321.6,118.5 Z M359.9,118.5 L359.9,94.7 L363.5,94.7 L363.5,98.1 C365.3,95.5 367.8,94.2 371.1,94.2 C372.5,94.2 373.9,94.5 375.1,95 C376.3,95.5 377.2,96.2 377.8,97 C378.4,97.8 378.8,98.8 379.1,100 C379.2,100.7 379.3,102.1 379.3,103.9 L379.3,118.6 L375.3,118.6 L375.3,104 C375.3,102.4 375.1,101.1 374.8,100.3 C374.5,99.5 373.9,98.8 373.1,98.3 C372.3,97.8 371.4,97.6 370.3,97.6 C368.6,97.6 367.1,98.1 365.8,99.2 C364.5,100.3 363.9,102.4 363.9,105.4 L363.9,118.4 L359.9,118.4 L359.9,118.5 Z M385.5,90.3 L385.5,85.7 L389.5,85.7 L389.5,90.3 L385.5,90.3 Z M385.5,118.5 L385.5,94.7 L389.5,94.7 L389.5,118.6 L385.5,118.6 L385.5,118.5 Z M255.6,164.2 L255.6,131.3 L260.1,131.3 L277.4,157.2 L277.4,131.3 L281.6,131.3 L281.6,164.2 L277,164.2 L259.7,138.3 L259.7,164.2 L255.6,164.2 Z M304.7,156.6 L308.9,157.1 C308.2,159.5 307,161.4 305.2,162.8 C303.4,164.2 301.1,164.8 298.4,164.8 C294.9,164.8 292.1,163.7 290.1,161.6 C288.1,159.5 287,156.4 287,152.6 C287,148.6 288,145.5 290.1,143.3 C292.2,141.1 294.8,140 298.1,140 C301.3,140 303.9,141.1 305.9,143.3 C307.9,145.5 308.9,148.5 308.9,152.5 C308.9,152.7 308.9,153.1 308.9,153.6 L291.1,153.6 C291.2,156.2 292,158.2 293.3,159.6 C294.6,161 296.3,161.7 298.3,161.7 C299.8,161.7 301,161.3 302.1,160.5 C303.2,159.7 304,158.3 304.7,156.6 Z M291.4,150 L304.7,150 C304.5,148 304,146.5 303.2,145.5 C301.9,143.9 300.2,143.2 298.2,143.2 C296.3,143.2 294.8,143.8 293.5,145.1 C292.2,146.3 291.5,147.9 291.4,150 Z M322.7,160.6 L323.3,164.2 C322.2,164.4 321.1,164.6 320.2,164.6 C318.7,164.6 317.6,164.4 316.8,163.9 C316,163.4 315.4,162.8 315.1,162.1 C314.8,161.3 314.6,159.8 314.6,157.3 L314.6,143.6 L311.6,143.6 L311.6,140.5 L314.6,140.5 L314.6,134.6 L318.6,132.2 L318.6,140.5 L322.7,140.5 L322.7,143.6 L318.6,143.6 L318.6,157.5 C318.6,158.7 318.7,159.4 318.8,159.7 C318.9,160 319.2,160.3 319.5,160.5 C319.8,160.7 320.3,160.8 320.9,160.8 C321.4,160.8 322,160.7 322.7,160.6 Z M331.1,164.2 L323.8,140.3 L328,140.3 L331.8,154.1 L333.2,159.2 C333.3,158.9 333.7,157.3 334.4,154.3 L338.2,140.3 L342.4,140.3 L346,154.1 L347.2,158.7 L348.6,154.1 L352.7,140.3 L356.6,140.3 L349.1,164.2 L344.9,164.2 L341.1,149.9 L340.2,145.8 L335.4,164.2 L331.1,164.2 Z M358.4,152.3 C358.4,147.9 359.6,144.6 362.1,142.5 C364.2,140.7 366.7,139.8 369.6,139.8 C372.9,139.8 375.6,140.9 377.6,143 C379.7,145.1 380.7,148.1 380.7,151.9 C380.7,155 380.2,157.4 379.3,159.1 C378.4,160.9 377,162.2 375.3,163.2 C373.6,164.2 371.6,164.7 369.5,164.7 C366.2,164.7 363.5,163.6 361.4,161.5 C359.4,159.4 358.4,156.3 358.4,152.3 Z M362.6,152.3 C362.6,155.4 363.3,157.6 364.6,159.2 C365.9,160.7 367.6,161.5 369.6,161.5 C371.6,161.5 373.3,160.7 374.6,159.2 C375.9,157.7 376.6,155.3 376.6,152.2 C376.6,149.2 375.9,147 374.6,145.5 C373.3,144 371.6,143.2 369.6,143.2 C367.6,143.2 365.9,144 364.6,145.5 C363.3,147 362.6,149.3 362.6,152.3 Z M385.4,164.2 L385.4,140.3 L389,140.3 L389,143.9 C389.9,142.2 390.8,141.1 391.6,140.6 C392.4,140.1 393.3,139.8 394.2,139.8 C395.6,139.8 396.9,140.2 398.4,141.1 L397,144.9 C396,144.3 395,144 394,144 C393.1,144 392.3,144.3 391.6,144.8 C390.9,145.3 390.4,146.1 390.1,147 C389.7,148.4 389.4,150 389.4,151.7 L389.4,164.2 L385.4,164.2 L385.4,164.2 Z M400.8,164.2 L400.8,131.3 L404.8,131.3 L404.8,150.1 L414.4,140.4 L419.6,140.4 L410.5,149.2 L420.5,164.2 L415.5,164.2 L407.6,152 L404.7,154.7 L404.7,164.2 L400.8,164.2 L400.8,164.2 Z" id="Logo_Word_Mark" fill="#767C83"></path>
        </g>
    </g>
</svg>