
<svg width="153px" height="29px" viewBox="0 0 153 29" version="1.1" xmlns="http://www.w3.org/2000/svg" xmlns:xlink="http://www.w3.org/1999/xlink">
  <title>
    Osler Alumni Logo
  </title>    
    <g id="Page-1" stroke="none" stroke-width="1" fill="none" fill-rule="evenodd">
        <g id="ALUMNI-EN-Mobile-Logo" fill-rule="nonzero">
            <path d="M45.8067713,14.3748968 C45.8067713,14.9694467 45.7142857,15.5375723 45.5161024,16.0792733 C45.3311313,16.6209744 45.0404624,17.1098266 44.6705202,17.5326177 C44.300578,17.9554088 43.8381503,18.2857143 43.283237,18.5367465 C42.7283237,18.7877787 42.0941371,18.9199009 41.3542527,18.9199009 C40.6275805,18.9199009 39.9801817,18.8009909 39.4120562,18.5499587 C38.8571429,18.2989265 38.3815029,17.968621 37.9983485,17.5590421 C37.6151941,17.1494633 37.3245252,16.6738233 37.1263419,16.1321222 C36.9281585,15.5904211 36.8224608,15.0222956 36.8224608,14.4409579 C36.8224608,13.8464079 36.9149463,13.2782824 37.1131296,12.7365813 C37.311313,12.1948803 37.6019818,11.7192403 37.971924,11.2964492 C38.3418662,10.8736581 38.8175062,10.5433526 39.3724195,10.3055326 C39.9273328,10.0545004 40.5747316,9.93559042 41.3014038,9.93559042 C42.028076,9.93559042 42.6754748,10.0545004 43.2303881,10.3055326 C43.7853014,10.5565648 44.2477291,10.8868704 44.6308836,11.283237 C45.014038,11.6928159 45.2914946,12.1684558 45.489678,12.7101569 C45.7142857,13.2254335 45.8067713,13.793559 45.8067713,14.3748968 Z M43.8645747,14.4277457 C43.8645747,14.031379 43.8117258,13.6482246 43.7192403,13.2782824 C43.6267547,12.9083402 43.4682081,12.5912469 43.2700248,12.3137903 C43.0718415,12.0363336 42.807597,11.8249381 42.4905037,11.6531792 C42.1734104,11.4946325 41.8034682,11.402147 41.3674649,11.402147 C40.9314616,11.402147 40.5483072,11.4814203 40.2312139,11.639967 C39.9141206,11.7985136 39.6366639,12.0099092 39.4252684,12.2873658 C39.2138728,12.5648225 39.0553262,12.8819158 38.9496284,13.2386457 C38.8439306,13.5953757 38.7910818,13.9785301 38.7910818,14.3748968 C38.7910818,14.7844756 38.8439306,15.1676301 38.9364162,15.5375723 C39.042114,15.9075145 39.1874484,16.2246078 39.3988439,16.5152766 C39.6102395,16.7927333 39.8744839,17.017341 40.1915772,17.1758877 C40.5086705,17.3476466 40.8786127,17.4269199 41.314616,17.4269199 C41.7506193,17.4269199 42.1205615,17.3476466 42.4376548,17.1890999 C42.7547481,17.0305533 43.0189926,16.8059455 43.2303881,16.5417011 C43.4417836,16.2642444 43.5871181,15.9471511 43.6928159,15.5904211 C43.8117258,15.2204789 43.8645747,14.8373245 43.8645747,14.4277457 Z M51.0916598,16.8720066 C51.0916598,17.5458299 50.867052,18.0478943 50.4310487,18.3914121 C49.9818332,18.7349298 49.374071,18.9066887 48.5813377,18.9066887 C48.0132122,18.9066887 47.5375723,18.8406276 47.1676301,18.7085054 C46.7976879,18.5763832 46.5202312,18.4442609 46.3220479,18.3121387 L46.9033856,17.0966144 C46.9694467,17.136251 47.0487201,17.1890999 47.1544178,17.255161 C47.2601156,17.3212221 47.3790256,17.374071 47.52436,17.4269199 C47.6696945,17.4797688 47.8150289,17.5194055 47.9735756,17.5590421 C48.1321222,17.5986788 48.3038811,17.611891 48.47564,17.611891 C48.8059455,17.611891 49.0569777,17.5590421 49.2419488,17.4665566 C49.4269199,17.374071 49.5194055,17.2287366 49.5194055,17.0437655 C49.5194055,16.9380677 49.4797688,16.8455822 49.4004955,16.7663088 C49.3212221,16.6870355 49.2023121,16.6209744 49.0569777,16.5549133 C48.9116433,16.4888522 48.7398844,16.4227911 48.5549133,16.3435178 C48.35673,16.2642444 48.1453344,16.1717589 47.9207267,16.0660611 C47.4715111,15.8546656 47.1279934,15.6168456 46.8769612,15.3393889 C46.625929,15.0619323 46.4938068,14.6787779 46.4938068,14.1899257 C46.4938068,13.5953757 46.7052023,13.1197358 47.1412056,12.776218 C47.5772089,12.4327002 48.1453344,12.2609414 48.8720066,12.2609414 C49.4137077,12.2609414 49.8629232,12.3270025 50.1932287,12.4459125 C50.5235343,12.5780347 50.7613543,12.6837325 50.9066887,12.7630058 L50.2989265,13.9521057 C50.1800165,13.8728324 49.9950454,13.793559 49.7572254,13.6878613 C49.5194055,13.5953757 49.2419488,13.5425268 48.9380677,13.5425268 C48.6341866,13.5425268 48.4095789,13.5953757 48.2774566,13.6878613 C48.1321222,13.793559 48.0660611,13.9256813 48.0660611,14.0974401 C48.0660611,14.2031379 48.0924855,14.2956235 48.1585467,14.3616846 C48.2246078,14.4409579 48.3170933,14.507019 48.4360033,14.5598679 C48.5549133,14.625929 48.6870355,14.6787779 48.8587944,14.7316268 C49.017341,14.7844756 49.1890999,14.8505367 49.374071,14.9165979 C49.6251032,15.0222956 49.8629232,15.1279934 50.0743187,15.2469034 C50.2857143,15.3658134 50.4706854,15.4979356 50.6160198,15.64327 C50.7613543,15.7886045 50.8934765,15.9603633 50.9727498,16.1585467 C51.0388109,16.3831544 51.0916598,16.6077622 51.0916598,16.8720066 Z M51.9900908,18.748142 L51.9900908,9.36746491 L53.7208918,9.36746491 L53.7208918,18.748142 L51.9900908,18.748142 Z M56.4822461,15.9735756 C56.5218827,16.4624277 56.6804294,16.8587944 56.9314616,17.1626755 C57.1824938,17.4665566 57.5788604,17.611891 58.1073493,17.611891 C58.5433526,17.611891 58.8868704,17.5590421 59.1379026,17.4533443 C59.3889348,17.3476466 59.6003303,17.255161 59.758877,17.1758877 L60.3137903,18.2989265 C60.2080925,18.3649876 60.0891825,18.4310487 59.9438481,18.4971098 C59.7985136,18.5631709 59.639967,18.629232 59.4549959,18.6952931 C59.2700248,18.7613543 59.045417,18.8142031 58.7943848,18.8538398 C58.5433526,18.8934765 58.2526837,18.9199009 57.9355904,18.9199009 C57.4071016,18.9199009 56.9314616,18.8406276 56.5218827,18.6820809 C56.1123039,18.5235343 55.7687861,18.2989265 55.4781173,17.9950454 C55.2006606,17.7043765 54.9892651,17.3476466 54.8307184,16.9380677 C54.685384,16.5284889 54.6061107,16.0660611 54.6061107,15.5639967 C54.6061107,15.0619323 54.685384,14.5995045 54.8439306,14.2031379 C55.0024773,13.793559 55.2270851,13.4500413 55.5045417,13.1725846 C55.7819983,12.8819158 56.1123039,12.6705202 56.4954583,12.5119736 C56.8786127,12.3534269 57.2881916,12.2741536 57.7374071,12.2741536 C58.7415359,12.2741536 59.4682081,12.6044591 59.9306358,13.251858 C60.3930636,13.8992568 60.5780347,14.8241123 60.4723369,16 L56.4822461,16 L56.4822461,15.9735756 Z M58.8472337,14.7976879 C58.8472337,14.6127168 58.8208092,14.4409579 58.7811726,14.2956235 C58.7415359,14.1370768 58.6754748,14.0049546 58.5962015,13.8860446 C58.5169282,13.7671346 58.3980182,13.6746491 58.265896,13.6085879 C58.1205615,13.5425268 57.9620149,13.5028902 57.7638315,13.5028902 C57.3938893,13.5028902 57.1164327,13.6218002 56.9050372,13.8464079 C56.6936416,14.0710157 56.5615194,14.388109 56.4954583,14.8109001 L58.8472337,14.8109001 L58.8472337,14.7976879 Z M65.255161,13.9256813 C65.2023121,13.8860446 65.1230388,13.8596201 65.017341,13.8331957 C64.9116433,13.8067713 64.7663088,13.793559 64.5813377,13.793559 C64.3963666,13.793559 64.2246078,13.8331957 64.0660611,13.8992568 C63.9075145,13.9785301 63.7753922,14.0578035 63.6564822,14.1635012 C63.5375723,14.269199 63.4450867,14.3748968 63.3658134,14.4805945 C63.28654,14.5862923 63.2336912,14.6787779 63.1940545,14.744839 L63.1940545,18.748142 L61.4632535,18.748142 L61.4632535,12.4062758 L63.1940545,12.4062758 L63.1940545,13.2650702 C63.2601156,13.1461602 63.3526012,13.0404624 63.4450867,12.9083402 C63.5507845,12.7894302 63.6564822,12.6705202 63.7886045,12.5780347 C63.9207267,12.4723369 64.0660611,12.3930636 64.23782,12.3402147 C64.4095789,12.2741536 64.59455,12.2477291 64.7927333,12.2477291 C65.0305533,12.2477291 65.2155244,12.2609414 65.3476466,12.300578 C65.4797688,12.3402147 65.5854666,12.3798514 65.6515277,12.419488 L65.255161,13.9256813 Z M72.3765483,10.0677126 L73.3674649,10.0677126 L76.7101569,18.748142 L75.6003303,18.748142 L74.807597,16.59455 L70.8571429,16.59455 L70.0644096,18.748142 L69.0602808,18.748142 L72.3765483,10.0677126 Z M74.4772915,15.7357556 L73.3806771,12.7630058 C73.1032205,12.0363336 72.9843105,11.6663914 72.8521883,11.2700248 L72.8257638,11.2700248 C72.6804294,11.7060281 72.535095,12.1023947 72.297275,12.7630058 L71.1874484,15.7357556 L74.4772915,15.7357556 Z M77.6614368,9.36746491 L78.6127168,9.36746491 L78.6127168,18.748142 L77.6614368,18.748142 L77.6614368,9.36746491 Z M80.3038811,16.9512799 L80.3038811,12.4987614 L81.255161,12.4987614 L81.255161,16.7795211 C81.255161,17.5590421 81.5326177,18.0611065 82.3781998,18.0611065 C83.3294798,18.0611065 84.0429397,17.0966144 84.1750619,16.9116433 L84.1750619,12.4987614 L85.1263419,12.4987614 L85.1263419,17.4401321 C85.1263419,17.968621 85.192403,18.510322 85.2452519,18.7613543 L84.2807597,18.7613543 C84.2543353,18.6028076 84.2014864,18.1535921 84.1882742,17.8364988 C83.8976053,18.2328654 83.2369942,18.9199009 82.1535921,18.9199009 C80.8323699,18.9066887 80.3038811,18.0346821 80.3038811,16.9512799 Z M86.8703551,12.4987614 L87.821635,12.4987614 L87.821635,13.3839802 C88.0990917,13.0404624 88.6672172,12.3402147 89.7374071,12.3402147 C90.6490504,12.3402147 91.1379026,12.8158547 91.3360859,13.3971924 C91.8249381,12.8687036 92.4459125,12.3402147 93.3575557,12.3402147 C94.625929,12.3402147 95.1147812,13.1857969 95.1147812,14.2956235 L95.1147812,18.748142 L94.1635012,18.748142 L94.1635012,14.4673823 C94.1635012,13.7142857 93.9256813,13.1857969 93.132948,13.1857969 C92.3666391,13.1857969 91.758877,13.7803468 91.4682081,14.1635012 L91.4682081,18.7349298 L90.5169282,18.7349298 L90.5169282,14.4541701 C90.5169282,13.6746491 90.2394715,13.1725846 89.5127993,13.1725846 C88.6011561,13.1725846 87.9537572,14.1238646 87.821635,14.3088357 L87.821635,18.7217176 L86.8703551,18.7217176 L86.8703551,12.4987614 L86.8703551,12.4987614 Z M96.8191577,12.4987614 L97.7704377,12.4987614 L97.7704377,13.3971924 C98.3253509,12.6969447 99.0388109,12.3402147 99.8051197,12.3402147 C101.126342,12.3402147 101.641618,13.2122213 101.641618,14.2956235 L101.641618,18.748142 L100.690339,18.748142 L100.690339,14.4673823 C100.690339,13.6878613 100.412882,13.1857969 99.580512,13.1857969 C98.8802642,13.1857969 98.206441,13.7142857 97.7704377,14.3352601 L97.7704377,18.7349298 L96.8191577,18.7349298 L96.8191577,12.4987614 L96.8191577,12.4987614 Z M103.200661,10.6226259 C103.200661,10.2262593 103.517754,9.9223782 103.900908,9.9223782 C104.284063,9.9223782 104.601156,10.2394715 104.601156,10.6226259 C104.601156,11.0189926 104.284063,11.3228737 103.900908,11.3228737 C103.517754,11.3228737 103.200661,11.0057803 103.200661,10.6226259 Z M103.425268,12.4987614 L104.389761,12.4987614 L104.389761,18.7613543 L103.425268,18.7613543 L103.425268,12.4987614 Z M108.90834,10.0677126 L109.912469,10.0677126 L114.008258,15.9471511 C114.417836,16.5284889 114.655656,16.9644922 114.814203,17.2287366 L114.840628,17.2287366 C114.827415,17.0569777 114.787779,16.7002477 114.787779,16.0528489 L114.787779,10.0677126 L115.725846,10.0677126 L115.725846,18.748142 L114.787779,18.748142 L110.493807,12.5516102 C110.229562,12.181668 109.97853,11.7060281 109.819983,11.4285714 L109.793559,11.4285714 C109.806771,11.6003303 109.846408,11.9570603 109.846408,12.3798514 L109.846408,18.7349298 L108.90834,18.7349298 L108.90834,10.0677126 Z M117.086705,15.5772089 C117.086705,13.7407102 118.236168,12.3270025 119.900908,12.3270025 C121.446738,12.3270025 122.358382,13.4368291 122.358382,15.1412056 C122.358382,15.28654 122.345169,15.4318745 122.331957,15.5904211 L118.090834,15.5904211 C118.117258,16.9248555 118.645747,18.0743187 120.059455,18.0743187 C120.931462,18.0743187 121.526012,17.6779521 121.790256,17.5194055 L122.186623,18.2592898 C121.869529,18.4706854 121.169282,18.8934765 120.033031,18.8934765 C118.077622,18.9066887 117.086705,17.4401321 117.086705,15.5772089 Z M121.380677,14.8373245 C121.354253,13.9521057 120.944674,13.1593724 119.874484,13.1593724 C118.870355,13.1593724 118.328654,13.8596201 118.156895,14.8373245 L121.380677,14.8373245 Z M123.917424,17.255161 L123.917424,13.251858 L122.88687,13.251858 L122.88687,12.4987614 L123.917424,12.4987614 L123.917424,10.7018993 L124.868704,10.7018993 L124.868704,12.4855491 L126.440958,12.4855491 L126.440958,13.2386457 L124.868704,13.2386457 L124.868704,17.1494633 C124.868704,17.7704377 125.053675,18.0743187 125.595376,18.0743187 C125.991742,18.0743187 126.33526,17.8761354 126.440958,17.7968621 L126.797688,18.510322 C126.612717,18.629232 126.163501,18.8934765 125.476466,18.8934765 C124.4327,18.9066887 123.917424,18.2989265 123.917424,17.255161 Z M127.04872,12.4987614 L128.092486,12.4987614 L129.42692,17.2287366 L129.453344,17.2287366 L130.919901,12.4987614 L131.844756,12.4987614 L133.311313,17.2419488 L133.337737,17.2419488 L134.685384,12.4987614 L135.649876,12.4987614 L133.773741,18.7613543 L132.914946,18.7613543 L131.369116,13.8992568 L131.342692,13.8992568 L129.78365,18.7613543 L128.924855,18.7613543 L127.04872,12.4987614 Z M136.059455,15.6300578 C136.059455,14.1635012 136.799339,12.3270025 138.913295,12.3270025 C141.02725,12.3270025 141.899257,14.1370768 141.899257,15.6036334 C141.899257,17.0701899 141.066887,18.9066887 138.952931,18.9066887 C136.838976,18.9066887 136.059455,17.0966144 136.059455,15.6300578 Z M140.881916,15.6300578 C140.881916,14.2824112 140.208092,13.1593724 138.900083,13.1593724 C137.592073,13.1593724 137.076796,14.269199 137.076796,15.6036334 C137.076796,16.9512799 137.658134,18.0743187 138.966144,18.0743187 C140.274154,18.0743187 140.881916,16.9777044 140.881916,15.6300578 Z M143.101569,12.4987614 L144.052849,12.4987614 L144.052849,13.4764657 C144.303881,13.0536746 144.845582,12.3402147 145.717589,12.3402147 C146.100743,12.3402147 146.285714,12.4327002 146.364988,12.4723369 L146.127168,13.3839802 C146.061107,13.3443435 145.90256,13.2782824 145.585467,13.2782824 C144.647399,13.2782824 144.11891,14.3616846 144.052849,14.5598679 L144.052849,18.7613543 L143.101569,18.7613543 L143.101569,12.4987614 L143.101569,12.4987614 Z M147.236994,9.36746491 L148.188274,9.36746491 L148.188274,18.748142 L147.236994,18.748142 L147.236994,9.36746491 Z M148.254335,15.2601156 L150.830718,12.4987614 L151.966969,12.4987614 L149.364162,15.2601156 L152.085879,18.748142 L150.923204,18.748142 L148.254335,15.2601156 Z" id="Shape" fill="#767C83"></path>
            <g id="Group" fill="#424242">
                <path d="M3.87118084,9.45995045 C2.94632535,9.45995045 2.28571429,10.1205615 2.28571429,11.045417 L2.28571429,11.7720892 C2.28571429,12.6969447 2.94632535,13.3575557 3.87118084,13.3575557 C4.78282411,13.3575557 5.4566474,12.6969447 5.4566474,11.7720892 L5.4566474,11.045417 C5.4566474,10.1337737 4.78282411,9.45995045 3.87118084,9.45995045 Z" id="Path"></path>
                <path d="M13.0668869,17.0437655 L13.0668869,17.0437655 C13.0933113,16.5152766 12.7630058,16.0396367 12.4855491,15.7489678 C11.7456647,14.9562345 10.4376548,14.3748968 9.32782824,14.3352601 C8.27085054,14.3088357 7.04211396,14.7976879 6.2625929,15.5507845 C5.93228737,15.88109 5.53592073,16.3963666 5.53592073,17.0437655 L5.53592073,17.0437655 L5.53592073,23.7159372 C6.55326177,24.059455 7.59702725,24.2312139 8.66721718,24.2047894 C9.18249381,24.1915772 9.71098266,24.1387283 10.2526837,24.0330306 C11.283237,23.8348472 12.2213047,23.5045417 13.0668869,23.0685384 C13.0668869,23.0685384 13.0668869,17.0437655 13.0668869,17.0437655 Z" id="Path"></path>
                <path d="M9.3014038,8.60115607 C8.37654831,8.60115607 7.71593724,9.26176713 7.71593724,10.1866226 L7.71593724,10.9132948 C7.71593724,11.8249381 8.37654831,12.4987614 9.3014038,12.4987614 C10.2130471,12.4987614 10.8868704,11.8381503 10.8868704,10.9132948 L10.8868704,10.1866226 C10.8868704,9.27497936 10.2262593,8.60115607 9.3014038,8.60115607 Z" id="Path"></path>
                <path d="M16.2510322,11.7720892 L16.2510322,11.045417 C16.2510322,10.1337737 15.5904211,9.45995045 14.6655656,9.45995045 C13.7407102,9.45995045 13.0800991,10.1205615 13.0800991,11.045417 L13.0800991,11.7720892 C13.0800991,12.6969447 13.7407102,13.3575557 14.6655656,13.3575557 C15.5904211,13.3575557 16.2510322,12.6969447 16.2510322,11.7720892 Z" id="Path"></path>
                <path d="M17.1230388,16.4095789 C16.35673,15.6564822 15.1279934,15.1676301 14.0578035,15.1940545 L14.0445912,14.7316268 C15.2204789,14.7052023 16.5813377,15.2469034 17.4401321,16.0792733 C17.730801,16.35673 17.9421965,16.6606111 18.087531,16.9644922 C18.9066887,14.7184145 19.0652353,12.3666391 18.629232,9.96201486 C18.0478943,6.71180842 16.6341866,3.92402973 14.1899257,1.71758877 C13.4500413,1.04376548 12.6705202,0.488852188 11.8645747,0.0528488852 C5.12634187,1.18909992 0,7.05532618 0,14.1106524 C0,15.1544178 0.118909992,16.1585467 0.330305533,17.136251 C0.475639967,16.7663088 0.71345995,16.4095789 1.0569777,16.0792733 C1.91577209,15.2469034 3.27663088,14.7052023 4.45251858,14.7316268 L4.43930636,15.1940545 C3.38232865,15.1676301 2.15359207,15.6564822 1.37407102,16.4095789 C1.04376548,16.7398844 0.647398844,17.255161 0.647398844,17.9025599 L0.647398844,18.3517754 C1.0569777,19.6862097 1.66473988,20.9281585 2.4178365,22.0644096 C2.70850537,22.2758051 2.99917424,22.4739884 3.31626755,22.6721718 C3.89760528,23.0289017 4.47894302,23.3195706 5.0867052,23.5573906 L5.0867052,17.0437655 L5.0867052,17.0437655 C5.0867052,16.4095789 5.39058629,15.7753922 5.95871181,15.2204789 C6.81750619,14.388109 8.17836499,13.8464079 9.35425268,13.8728324 C10.5962015,13.8992568 11.9966969,14.5334434 12.8290669,15.4318745 C13.3047069,15.9471511 13.5557391,16.5020644 13.5293146,17.0437655 L13.5293146,17.0437655 L13.5293146,22.804294 C15.2469034,21.7737407 16.5813377,20.2146986 17.5590421,18.2328654 C17.6515277,18.0346821 17.7440132,17.8364988 17.8364988,17.6383154 C17.730801,17.1098266 17.4004955,16.6870355 17.1230388,16.4095789 Z M5.91907514,11.7720892 C5.91907514,12.9347647 5.03385632,13.8199835 3.87118084,13.8199835 C2.70850537,13.8199835 1.82328654,12.9347647 1.82328654,11.7720892 L1.82328654,11.045417 C1.82328654,9.88274154 2.70850537,8.99752271 3.87118084,8.99752271 C5.03385632,8.99752271 5.91907514,9.88274154 5.91907514,11.045417 L5.91907514,11.7720892 Z M11.3492981,10.9132948 C11.3492981,12.0759703 10.4640793,12.9611891 9.3014038,12.9611891 C8.13872832,12.9611891 7.2535095,12.0759703 7.2535095,10.9132948 L7.2535095,10.1866226 C7.2535095,9.02394715 8.13872832,8.13872832 9.3014038,8.13872832 C10.4640793,8.13872832 11.3492981,9.02394715 11.3492981,10.1866226 L11.3492981,10.9132948 Z M12.6176713,11.7720892 L12.6176713,11.045417 C12.6176713,9.88274154 13.5028902,8.99752271 14.6655656,8.99752271 C15.8282411,8.99752271 16.71346,9.88274154 16.71346,11.045417 L16.71346,11.7720892 C16.71346,12.9347647 15.8414533,13.8199835 14.6655656,13.8199835 C13.5028902,13.8199835 12.6176713,12.9347647 12.6176713,11.7720892 Z" id="Shape"></path>
            </g>
            <path d="M16.3699422,0 C17.0701899,0.475639967 17.7440132,1.03055326 18.3914121,1.65152766 C20.8092486,3.97687861 22.2229562,6.85714286 22.5268373,10.265896 C22.5532618,10.6226259 22.5796862,10.9793559 22.5796862,11.3360859 L22.5796862,11.3625103 C22.6457473,14.9562345 21.4170107,18.1139554 18.9991742,20.8224608 C16.5549133,23.5573906 13.4764657,25.0635838 9.90916598,25.5392238 C9.39388935,25.6052849 8.8654005,25.6184971 8.24442609,25.671346 C7.33278282,25.6581338 6.447564,25.5788604 5.58876961,25.4467382 C7.99339389,27.2964492 11.0057803,28.3930636 14.269199,28.3930636 C22.1568951,28.3930636 28.538398,21.9983485 28.538398,14.1238646 C28.538398,6.94962841 23.2535095,1.01734104 16.3699422,0 Z" id="Path" fill="#424242"></path>
        </g>
    </g>
</svg>