<svg xmlns="http://www.w3.org/2000/svg" viewBox="0 0 185.8 165.1"><defs><style>.cls-1{fill:#cd153e;}</style></defs><title>connect</title><g id="Layer_2" data-name="Layer 2"><g id="Layer_1-2" data-name="Layer 1"><path class="cls-1" d="M33.25,55.49h0A17.72,17.72,0,0,1,15.51,37.75V34.62A17.74,17.74,0,0,1,33.25,16.88h0A17.76,17.76,0,0,1,51,34.62v3.13A17.76,17.76,0,0,1,33.25,55.49Zm0-33.8A12.92,12.92,0,0,0,20.33,34.62v3.13a12.93,12.93,0,1,0,25.85,0V34.62A12.94,12.94,0,0,0,33.25,21.69Z"/><path class="cls-1" d="M33.2,92.58A89.88,89.88,0,0,1,8.58,89.15,11.62,11.62,0,0,1,0,78,16.52,16.52,0,0,1,11.33,62.33a70.06,70.06,0,0,1,43.84,0A16.5,16.5,0,0,1,66.5,78,11.56,11.56,0,0,1,58.13,89.1,91.14,91.14,0,0,1,33.2,92.58Zm0-28.95A64.89,64.89,0,0,0,12.85,66.9,11.7,11.7,0,0,0,4.82,78a6.71,6.71,0,0,0,4.86,6.44,85.45,85.45,0,0,0,46.93.06A6.78,6.78,0,0,0,61.68,78h0a11.66,11.66,0,0,0-8-11.11A64.75,64.75,0,0,0,33.24,63.63Z"/><path class="cls-1" d="M152.54,55.49h0A17.76,17.76,0,0,1,134.8,37.75V34.62a17.74,17.74,0,0,1,17.74-17.74h0a17.76,17.76,0,0,1,17.74,17.74v3.13A17.76,17.76,0,0,1,152.54,55.49Zm0-33.8a12.94,12.94,0,0,0-12.92,12.93v3.13a12.93,12.93,0,1,0,25.85,0V34.62a12.94,12.94,0,0,0-12.92-12.93Z"/><path class="cls-1" d="M152.5,92.58a89.83,89.83,0,0,1-24.62-3.43A11.6,11.6,0,0,1,119.3,78a16.5,16.5,0,0,1,11.33-15.69,70,70,0,0,1,43.83,0A16.51,16.51,0,0,1,185.8,78h0a11.58,11.58,0,0,1-8.37,11.07A91.53,91.53,0,0,1,152.5,92.58Zm0-28.95a64.84,64.84,0,0,0-20.39,3.27,11.69,11.69,0,0,0-8,11.12A6.73,6.73,0,0,0,129,84.46a85.45,85.45,0,0,0,46.93.06A6.8,6.8,0,0,0,181,78a11.69,11.69,0,0,0-8-11.11A64.8,64.8,0,0,0,152.54,63.63Z"/><path class="cls-1" d="M92.9,128h0a17.76,17.76,0,0,1-17.74-17.74v-3.14a17.74,17.74,0,1,1,35.48,0v3.13A17.74,17.74,0,0,1,92.9,128Zm0-33.8A12.94,12.94,0,0,0,80,107.13v3.14A12.94,12.94,0,0,0,92.9,123.19h0a12.91,12.91,0,0,0,12.92-12.92v-3.14A12.94,12.94,0,0,0,92.9,94.21Z"/><path class="cls-1" d="M92.85,165.1a89.78,89.78,0,0,1-24.62-3.43,11.61,11.61,0,0,1-8.58-11.13A16.52,16.52,0,0,1,71,134.84a70.07,70.07,0,0,1,43.82,0,16.51,16.51,0,0,1,11.34,15.69h0a11.57,11.57,0,0,1-8.37,11.06A91.16,91.16,0,0,1,92.85,165.1Zm0-28.95a64.56,64.56,0,0,0-20.39,3.27,11.72,11.72,0,0,0-8,11.12A6.7,6.7,0,0,0,69.33,157a85.51,85.51,0,0,0,46.92.07,6.8,6.8,0,0,0,5.08-6.5,11.7,11.7,0,0,0-8-11.12A65.07,65.07,0,0,0,92.89,136.15Z"/><path class="cls-1" d="M53.31,145.41a78.69,78.69,0,0,1-35.9-47.28l4.65-1.24a73.86,73.86,0,0,0,33.69,44.37Z"/><path class="cls-1" d="M132.82,145.21l-2.46-4.14a73,73,0,0,0,33.23-43.64l4.65,1.27A77.82,77.82,0,0,1,132.82,145.21Z"/><path class="cls-1" d="M50.56,18.28l-2.78-3.93a78.12,78.12,0,0,1,89.82-.3L134.84,18a73.32,73.32,0,0,0-84.28.28Z"/></g></g></svg>