<svg xmlns="http://www.w3.org/2000/svg" viewBox="0 0 157.96 172.41"><defs><style>.cls-1{fill:#cd153e;}</style></defs><title>flag</title><g id="Layer_2" data-name="Layer 2"><g id="Layer_1-2" data-name="Layer 1"><path class="cls-1" d="M33.26,43.46A17.76,17.76,0,0,0,51,25.72V22.59a17.74,17.74,0,1,0-35.48,0v3.13A17.74,17.74,0,0,0,33.26,43.46ZM20.33,22.59a12.93,12.93,0,1,1,25.85,0v3.13a12.93,12.93,0,1,1-25.85,0Z"/><rect class="cls-1" x="30.84" y="110.2" width="4.82" height="62.21"/><path class="cls-1" d="M158,12H123.91V5.46H94.46V0H89.65V46.75H33.24A69.15,69.15,0,0,0,11.33,50.3,16.51,16.51,0,0,0,0,66v38.62a8,8,0,0,0,8,8h6v59.81h4.82l0-98.73H14v34.11H8a3.18,3.18,0,0,1-3.17-3.18V66a11.7,11.7,0,0,1,8-11.12,64.6,64.6,0,0,1,20.4-3.3H93.18a4.61,4.61,0,0,1,0,9.22H47.64V172.41h4.81V65.61H89.65v106.8h4.81V65.51a9.42,9.42,0,0,0,0-18.66V33.4h24.63v6.53H158L144.55,26ZM94.46,28.59V10.27h24.63V28.59Zm52.2,6.52H123.91V16.8h22.75L137.87,26Z"/></g></g></svg>