<svg xmlns="http://www.w3.org/2000/svg" viewBox="0 0 187.8 204.92"><defs><style>.cls-1{fill:#cd153e;}</style></defs><title>group</title><g id="Layer_2" data-name="Layer 2"><g id="Layer_1-2" data-name="Layer 1"><path class="cls-1" d="M76.16,58.22a17.75,17.75,0,0,0,35.49,0V55.09a17.75,17.75,0,0,0-35.49,0ZM81,55.09a12.93,12.93,0,1,1,25.85,0v3.14a12.93,12.93,0,1,1-25.85,0Z"/><path class="cls-1" d="M63.58,38.61h0A17.72,17.72,0,0,0,81.32,20.87V17.74a17.74,17.74,0,0,0-35.48,0v3.13A17.76,17.76,0,0,0,63.58,38.61ZM50.65,17.74a12.93,12.93,0,0,1,25.86,0v3.13A12.92,12.92,0,0,1,63.58,33.8h0A12.94,12.94,0,0,1,50.65,20.87Z"/><path class="cls-1" d="M124.23,38.61h0A17.74,17.74,0,0,0,142,20.87V17.74A17.74,17.74,0,0,0,124.23,0a17.76,17.76,0,0,0-17.74,17.74v3.13A17.76,17.76,0,0,0,124.23,38.61ZM111.31,17.74a12.92,12.92,0,1,1,25.84,0v3.13A12.91,12.91,0,0,1,124.24,33.8h0a12.94,12.94,0,0,1-12.92-12.93Z"/><rect class="cls-1" x="91.49" y="142.71" width="4.82" height="62.2"/><path class="cls-1" d="M115.83,82.8A70.06,70.06,0,0,0,72,82.8,16.49,16.49,0,0,0,60.66,98.49v38.63a8,8,0,0,0,8,8h6v59.8H79.5V106.18H74.69v34.11h-6a3.17,3.17,0,0,1-3.17-3.17V98.49a11.7,11.7,0,0,1,8-11.12,65.19,65.19,0,0,1,40.82,0,11.7,11.7,0,0,1,8,11.11v38.64a3.17,3.17,0,0,1-3.17,3.17h-6V106.19H108.3v98.72h4.82v-59.8h6a8,8,0,0,0,8-8V98.49A16.52,16.52,0,0,0,115.83,82.8Z"/><path class="cls-1" d="M136.81,68.92a17.75,17.75,0,0,0,35.49,0V65.79a17.74,17.74,0,1,0-35.48,0Zm4.82-3.14a12.93,12.93,0,0,1,25.85,0v3.13a12.93,12.93,0,1,1-25.85,0Z"/><path class="cls-1" d="M33.26,86.65h0A17.74,17.74,0,0,0,51,68.91V65.77a17.74,17.74,0,0,0-35.48,0v3.14A17.76,17.76,0,0,0,33.26,86.65ZM20.33,65.77A12.94,12.94,0,0,1,33.26,52.85,12.92,12.92,0,0,1,46.18,65.77v3.14A12.92,12.92,0,0,1,33.27,81.83h0A12.94,12.94,0,0,1,20.33,68.91Z"/><path class="cls-1" d="M176.47,93.5a70.06,70.06,0,0,0-43.84,0l1.51,4.57a65.26,65.26,0,0,1,40.82,0,11.69,11.69,0,0,1,8,11.12v38.63a3.18,3.18,0,0,1-3.17,3.18h-6.05V116.88H169v88h4.82V155.81h6.05a8,8,0,0,0,8-8V109.19A16.5,16.5,0,0,0,176.47,93.5Z"/><rect class="cls-1" x="135.33" y="116.88" width="4.82" height="88.03"/><rect class="cls-1" x="152.14" y="153.4" width="4.82" height="51.52"/><rect class="cls-1" x="30.84" y="153.39" width="4.82" height="51.52"/><rect class="cls-1" x="47.65" y="116.87" width="4.82" height="88.03"/><path class="cls-1" d="M11.33,93.49A16.51,16.51,0,0,0,0,109.18V147.8a8,8,0,0,0,8,8h6V204.9h4.82v-88H14V151H8a3.18,3.18,0,0,1-3.17-3.18V109.18a11.7,11.7,0,0,1,8-11.12,65.19,65.19,0,0,1,40.82,0l1.51-4.57A70.06,70.06,0,0,0,11.33,93.49Z"/></g></g></svg>