<svg xmlns="http://www.w3.org/2000/svg" viewBox="0 0 191.42 176.61"><defs><style>.cls-1{fill:#cd153e;}</style></defs><title>present</title><g id="Layer_2" data-name="Layer 2"><g id="Layer_1-2" data-name="Layer 1"><path class="cls-1" d="M95.89,38.61a17.76,17.76,0,0,0,17.74-17.74V17.74A17.76,17.76,0,0,0,95.89,0h0A17.74,17.74,0,0,0,78.15,17.74v3.13A17.76,17.76,0,0,0,95.89,38.61ZM83,17.74A12.94,12.94,0,0,1,95.88,4.82h0a12.94,12.94,0,0,1,12.93,12.92v3.13a12.93,12.93,0,1,1-25.86,0Z"/><path class="cls-1" d="M174.47,171.79a17.18,17.18,0,0,0,.32-3.27v-3.14a17.77,17.77,0,0,0-17.7-17.74,17.65,17.65,0,0,0,2.36-8.8v-3.13a17.73,17.73,0,0,0-33.08-8.89A17.65,17.65,0,0,0,124.3,124V101h9.44l13-21.74h4.22V74.44H129.13V61.15a16.51,16.51,0,0,0-11.33-15.69,70.06,70.06,0,0,0-43.84,0A16.5,16.5,0,0,0,62.64,61.14v13.3H40.82v4.82h4.23L58,101h9.44v22.56a18.3,18.3,0,0,0-2.42,3.25,18.13,18.13,0,0,0-2.79-3.65A17.74,17.74,0,0,0,32,135.7v3.13a17.66,17.66,0,0,0,2.36,8.81,17.76,17.76,0,0,0-17.69,17.74v3.13a16.42,16.42,0,0,0,.31,3.28H0v4.82H191.42v-4.82ZM124,135.71v3.12h0a12.93,12.93,0,1,1-25.85,0v-3.12h0a12.93,12.93,0,1,1,25.85,0Zm4.81,0a12.93,12.93,0,0,1,25.86,0v3.13a12.93,12.93,0,0,1-25.86,0v-3.12ZM67.45,61.14a11.7,11.7,0,0,1,8-11.12,65.19,65.19,0,0,1,40.82,0,11.7,11.7,0,0,1,8,11.12V74.44h-9.23V62.65h-4.81V74.44H81.48V62.64H76.67v11.8H67.45ZM60.77,96.19,50.66,79.26h90.46L131,96.19h-6.7V87.28h-4.81v32.83a17.69,17.69,0,0,0-23.78,6.71,17.66,17.66,0,0,0-23.42-6.89V87.28H67.47v8.91Zm6.68,39.51a12.93,12.93,0,0,1,25.85,0v3.12h0a12.93,12.93,0,1,1-25.85,0v-3.12Zm-30.67,0a12.94,12.94,0,0,1,12.93-12.92,12.92,12.92,0,0,1,12.92,12.93v3.12h0a12.93,12.93,0,0,1-25.85,0ZM21.89,171.79a12.64,12.64,0,0,1-.44-3.28v-3.13a12.93,12.93,0,1,1,25.85,0v3.13h0a12.56,12.56,0,0,1-.44,3.27Zm30.67,0a12.23,12.23,0,0,1-.44-3.28v-3.13h0a12.93,12.93,0,1,1,25.85,0v3.17a12.77,12.77,0,0,1-.44,3.24Zm30.66,0a12.77,12.77,0,0,1-.44-3.24s0,0,0,0v-3.14h0a12.92,12.92,0,1,1,25.84,0v3.13h0a12.21,12.21,0,0,1-.44,3.27Zm30.67,0a12.58,12.58,0,0,1-.44-3.28v-3.13h0a12.93,12.93,0,1,1,25.85,0v3.13h0a12.56,12.56,0,0,1-.44,3.27Zm30.67,0a12.23,12.23,0,0,1-.44-3.28v-3.13h0a12.93,12.93,0,1,1,25.85,0v3.14a12.62,12.62,0,0,1-.44,3.27Z"/></g></g></svg>