<svg xmlns="http://www.w3.org/2000/svg" viewBox="0 0 15.67 15.67"><title>Asset 3</title><path d="M14.93.74a.84.84,0,0,1,.52.33.92.92,0,0,1,.22.59,13.66,13.66,0,0,1-1.93,7.09,13.73,13.73,0,0,1-5,5,13.67,13.67,0,0,1-7.06,1.9.92.92,0,0,1-.59-.22.84.84,0,0,1-.33-.52L0,11.84A.84.84,0,0,1,.1,11.2a1,1,0,0,1,.49-.46l3.3-1.4a.92.92,0,0,1,.61-.05A1,1,0,0,1,5,9.61l1.35,1.65a10.67,10.67,0,0,0,2.84-2,10.67,10.67,0,0,0,2-2.84L9.61,5a1,1,0,0,1-.32-.52.92.92,0,0,1,.05-.61l1.4-3.3A1,1,0,0,1,11.2.1.84.84,0,0,1,11.84,0Zm-13.24,14a12.66,12.66,0,0,0,6.54-1.78,12.81,12.81,0,0,0,4.68-4.68,12.55,12.55,0,0,0,1.78-6.54L11.63,1,10.22,4.29l2.24,1.8A13.49,13.49,0,0,1,9.92,9.92a13.49,13.49,0,0,1-3.83,2.54l-1.8-2.24L1,11.63Z" fill="#1f7085"/></svg>