<?xml version="1.0" encoding="UTF-8"?>
<svg width="18px" height="19px" viewBox="0 0 18 19" version="1.1" xmlns="http://www.w3.org/2000/svg" xmlns:xlink="http://www.w3.org/1999/xlink">
    <title>LinkedIn logo</title>
    <g id="Designs-(Updates)" stroke="none" stroke-width="1" fill="none" fill-rule="evenodd">
        <g id="Profile-–-Boards-&amp;-Associates" transform="translate(-1213.000000, -1269.000000)" fill="#CD153E">
            <g id="Footer/-Desktop-V2" transform="translate(0.000000, 1212.000000)">
                <path d="M1229.74996,57.7500387 C1230.0885,57.7500387 1230.38147,57.8737366 1230.62887,58.1211316 C1230.87626,58.3685267 1230.99996,58.6614947 1230.99996,59.0000358 L1230.99996,74 C1230.99996,74.3385411 1230.87626,74.6315091 1230.62887,74.8789042 C1230.38147,75.1262992 1230.0885,75.249997 1229.74996,75.249997 L1214.75,75.249997 C1214.41146,75.249997 1214.11849,75.1262992 1213.87109,74.8789042 C1213.6237,74.6315091 1213.5,74.3385411 1213.5,74 L1213.5,59.0000358 C1213.5,58.6614947 1213.6237,58.3685267 1213.87109,58.1211316 C1214.11849,57.8737366 1214.41146,57.7500387 1214.75,57.7500387 L1229.74996,57.7500387 Z M1216.19531,72.750003 L1218.81249,72.750003 L1218.81249,64.3906479 L1216.19531,64.3906479 L1216.19531,72.750003 Z M1217.48437,63.2578381 C1217.90103,63.2578381 1218.2591,63.1080991 1218.55858,62.8086204 C1218.85806,62.5091418 1219.0078,62.1575801 1219.0078,61.7539354 C1219.0078,61.3502908 1218.85806,60.9987291 1218.55858,60.6992505 C1218.2591,60.3997718 1217.90103,60.2500328 1217.48437,60.2500328 C1217.0677,60.2500328 1216.71614,60.3997718 1216.42968,60.6992505 C1216.14322,60.9987291 1215.99999,61.3502908 1215.99999,61.7539354 C1215.99999,62.1575801 1216.14322,62.5091418 1216.42968,62.8086204 C1216.71614,63.1080991 1217.0677,63.2578381 1217.48437,63.2578381 Z M1228.49996,72.750003 L1228.49996,68.1797014 C1228.49996,66.8776213 1228.31767,65.9271024 1227.95309,65.3281457 C1227.4583,64.5729393 1226.61195,64.1953359 1225.41403,64.1953359 C1224.81508,64.1953359 1224.28122,64.3385649 1223.81248,64.6250224 C1223.42185,64.8593968 1223.13539,65.1588754 1222.9531,65.5234577 L1222.91404,65.5234577 L1222.91404,64.3906479 L1220.41405,64.3906479 L1220.41405,72.750003 L1222.99216,72.750003 L1222.99216,68.6093879 C1222.99216,67.9583475 1223.08331,67.4635574 1223.2656,67.1250164 C1223.52602,66.6823093 1223.9557,66.4609555 1224.55466,66.4609555 C1225.15362,66.4609555 1225.54424,66.7083505 1225.72653,67.2031412 C1225.85674,67.5156405 1225.92185,68.0104311 1225.92185,68.6875127 L1225.92185,72.750003 L1228.49996,72.750003 Z" id="linkedin"></path>
            </g>
        </g>
    </g>
</svg>
