<?xml version="1.0" encoding="UTF-8"?>
<svg width="30px" height="26px" viewBox="0 0 30 26" version="1.1" xmlns="http://www.w3.org/2000/svg" xmlns:xlink="http://www.w3.org/1999/xlink">
    <!-- Generator: sketchtool 52.5 (67469) - http://www.bohemiancoding.com/sketch -->
    <title>Error icon</title>
    <g id="Designs-(Updates)" stroke="none" stroke-width="1" fill="none" fill-rule="evenodd">
        <g id="Events-Landing-Error" transform="translate(-120.000000, -556.000000)" fill="#8B0000">
            <g id="Group-5" transform="translate(120.000000, 556.000000)">
                <path d="M29.6967783,22.3455344 C29.9747313,22.886937 30.061592,23.4367985 29.9573595,23.9951196 C29.853127,24.5534407 29.575174,25.0271675 29.1234997,25.4163006 C28.6718254,25.8054338 28.1332913,26 27.5078964,26 L2.49210356,26 C1.86670874,26 1.32817458,25.8054338 0.876500275,25.4163006 C0.424825972,25.0271675 0.146872983,24.5534407 0.042640513,23.9951196 C-0.0615919573,23.4367985 0.0252686997,22.886937 0.303221689,22.3455344 L12.8111181,1.2308445 C13.1238155,0.689441935 13.5668035,0.325687777 14.1400821,0.139580476 C14.7133607,-0.0465268252 15.2866393,-0.0465268252 15.8599179,0.139580476 C16.4331965,0.325687777 16.8761845,0.689441935 17.1888819,1.2308445 L29.6967783,22.3455344 Z M14.5,18 C13.8115939,18 13.2228261,18.2445652 12.7336957,18.7336957 C12.2445652,19.2228261 12,19.8115939 12,20.5 C12,21.1884061 12.2445652,21.7771739 12.7336957,22.2663043 C13.2228261,22.7554348 13.8115939,23 14.5,23 C15.1884061,23 15.7771739,22.7554348 16.2663043,22.2663043 C16.7554348,21.7771739 17,21.1884061 17,20.5 C17,19.8115939 16.7554348,19.2228261 16.2663043,18.7336957 C15.7771739,18.2445652 15.1884061,18 14.5,18 Z M12,9.65 L12.4545455,16.45 C12.4545455,16.5833336 12.5208336,16.7083336 12.6534091,16.825 C12.7859846,16.9416664 12.94697,17 13.1363636,17 L15.8636364,17 C16.05303,17 16.2140154,16.9416664 16.3465909,16.825 C16.4791664,16.7083336 16.5454545,16.5833336 16.5454545,16.45 L17,9.65 C17,9.45 16.9337118,9.29166641 16.8011364,9.175 C16.6685609,9.05833359 16.5075755,9 16.3181818,9 L12.6818182,9 C12.4924245,9 12.3314391,9.05833359 12.1988636,9.175 C12.0662882,9.29166641 12,9.45 12,9.65 Z" id="ï±"></path>
            </g>
        </g>
    </g>
</svg>
