<svg xmlns="http://www.w3.org/2000/svg" viewBox="0 0 16.27 12.2"><title>Asset 4</title><path d="M14.75,0a1.5,1.5,0,0,1,1.52,1.53v9.15a1.5,1.5,0,0,1-.44,1.08,1.46,1.46,0,0,1-1.08.44H1.53a1.47,1.47,0,0,1-1.09-.44A1.5,1.5,0,0,1,0,10.68V1.53A1.5,1.5,0,0,1,1.53,0ZM1.53,1A.48.48,0,0,0,1,1.53v1.3c.74.63,2.34,1.93,4.8,3.88L6.1,7a7.89,7.89,0,0,0,1,.76,1.9,1.9,0,0,0,1,.42,1.91,1.91,0,0,0,1-.42,9.93,9.93,0,0,0,1-.76l.32-.25c2.45-1.95,4-3.25,4.79-3.88V1.53a.49.49,0,0,0-.14-.37A.47.47,0,0,0,14.75,1ZM14.75,11.19a.48.48,0,0,0,.36-.15.45.45,0,0,0,.14-.36V4.16L11.09,7.5l-.32.25a12.29,12.29,0,0,1-1.2.93,2.92,2.92,0,0,1-1.43.47,2.89,2.89,0,0,1-1.43-.47A8.8,8.8,0,0,1,5.5,7.75L5.18,7.5,1,4.16v6.52a.45.45,0,0,0,.14.36.5.5,0,0,0,.37.15Z" fill="#1f7085"/></svg>