
<svg width="21px" height="24px" viewBox="0 0 21 24" version="1.1" xmlns="http://www.w3.org/2000/svg" xmlns:xlink="http://www.w3.org/1999/xlink">
    <g id="Page-1" stroke="none" stroke-width="1" fill="none" fill-rule="evenodd">
        <g id="calendar-alt" fill="#CD153E" fill-rule="nonzero">
            <path d="M6.9375,13.5 L5.0625,13.5 C4.753125,13.5 4.5,13.246875 4.5,12.9375 L4.5,11.0625 C4.5,10.753125 4.753125,10.5 5.0625,10.5 L6.9375,10.5 C7.246875,10.5 7.5,10.753125 7.5,11.0625 L7.5,12.9375 C7.5,13.246875 7.246875,13.5 6.9375,13.5 Z M12,12.9375 L12,11.0625 C12,10.753125 11.746875,10.5 11.4375,10.5 L9.5625,10.5 C9.253125,10.5 9,10.753125 9,11.0625 L9,12.9375 C9,13.246875 9.253125,13.5 9.5625,13.5 L11.4375,13.5 C11.746875,13.5 12,13.246875 12,12.9375 Z M16.5,12.9375 L16.5,11.0625 C16.5,10.753125 16.246875,10.5 15.9375,10.5 L14.0625,10.5 C13.753125,10.5 13.5,10.753125 13.5,11.0625 L13.5,12.9375 C13.5,13.246875 13.753125,13.5 14.0625,13.5 L15.9375,13.5 C16.246875,13.5 16.5,13.246875 16.5,12.9375 Z M12,17.4375 L12,15.5625 C12,15.253125 11.746875,15 11.4375,15 L9.5625,15 C9.253125,15 9,15.253125 9,15.5625 L9,17.4375 C9,17.746875 9.253125,18 9.5625,18 L11.4375,18 C11.746875,18 12,17.746875 12,17.4375 Z M7.5,17.4375 L7.5,15.5625 C7.5,15.253125 7.246875,15 6.9375,15 L5.0625,15 C4.753125,15 4.5,15.253125 4.5,15.5625 L4.5,17.4375 C4.5,17.746875 4.753125,18 5.0625,18 L6.9375,18 C7.246875,18 7.5,17.746875 7.5,17.4375 Z M16.5,17.4375 L16.5,15.5625 C16.5,15.253125 16.246875,15 15.9375,15 L14.0625,15 C13.753125,15 13.5,15.253125 13.5,15.5625 L13.5,17.4375 C13.5,17.746875 13.753125,18 14.0625,18 L15.9375,18 C16.246875,18 16.5,17.746875 16.5,17.4375 Z M21,5.25 L21,21.75 C21,22.9921875 19.9921875,24 18.75,24 L2.25,24 C1.0078125,24 0,22.9921875 0,21.75 L0,5.25 C0,4.0078125 1.0078125,3 2.25,3 L4.5,3 L4.5,0.5625 C4.5,0.253125 4.753125,0 5.0625,0 L6.9375,0 C7.246875,0 7.5,0.253125 7.5,0.5625 L7.5,3 L13.5,3 L13.5,0.5625 C13.5,0.253125 13.753125,0 14.0625,0 L15.9375,0 C16.246875,0 16.5,0.253125 16.5,0.5625 L16.5,3 L18.75,3 C19.9921875,3 21,4.0078125 21,5.25 Z M18.75,21.46875 L18.75,7.5 L2.25,7.5 L2.25,21.46875 C2.25,21.6234375 2.3765625,21.75 2.53125,21.75 L18.46875,21.75 C18.6234375,21.75 18.75,21.6234375 18.75,21.46875 Z" id="Shape"></path>
        </g>
    </g>
</svg>