
<svg width="19px" height="19px" viewBox="0 0 19 19" version="1.1" xmlns="http://www.w3.org/2000/svg" xmlns:xlink="http://www.w3.org/1999/xlink">
    <title>Instagram logo</title>
    <g id="Page-1" stroke="none" stroke-width="1" fill="none" fill-rule="evenodd">
        <g id="instagram-logo" fill="#CD153E" fill-rule="nonzero">
            <path d="M13.7565745,0 L5.24320072,0 C2.3521016,0 0,2.35221398 0,5.2433131 L0,13.7566869 C0,16.6478984 2.3521016,19 5.24320072,19 L13.7565745,19 C16.6478984,19 19,16.647786 19,13.7566869 L19,5.2433131 C19,2.35221398 16.6478984,0 13.7565745,0 Z M17.3143403,13.7566869 C17.3143403,15.7183637 15.7183637,17.3142279 13.7566869,17.3142279 L5.24320072,17.3142279 C3.28163632,17.3142279 1.68577208,15.7183637 1.68577208,13.7566869 L1.68577208,5.2433131 C1.68577208,3.28174871 3.28163632,1.68577208 5.24320072,1.68577208 L13.7565745,1.68577208 C15.7182513,1.68577208 17.3143403,3.28174871 17.3143403,5.2433131 L17.3143403,13.7566869 L17.3143403,13.7566869 Z" id="Shape"></path>
            <path d="M10,5 C7.24295847,5 5,7.24300996 5,10.0001148 C5,12.7571048 7.24295847,15 10,15 C12.7570415,15 15,12.7571048 15,10.0001148 C15,7.24300996 12.7570415,5 10,5 Z M10,13.2782012 C8.19238804,13.2782012 6.72164451,11.8076535 6.72164451,10 C6.72164451,8.19223176 8.19227326,6.72156926 10,6.72156926 C11.8077267,6.72156926 13.2783555,8.19223176 13.2783555,10 C13.2783555,11.8076535 11.807612,13.2782012 10,13.2782012 Z" id="Shape"></path>
            <path d="M14,3 C13.7372727,3 13.4791818,3.10636364 13.2936364,3.29272727 C13.1071818,3.47818182 13,3.73636364 13,4 C13,4.26281818 13.1072727,4.52090909 13.2936364,4.70727273 C13.4790909,4.89272727 13.7372727,5 14,5 C14.2636364,5 14.5209091,4.89272727 14.7072727,4.70727273 C14.8936364,4.52090909 15,4.26272727 15,4 C15,3.73636364 14.8936364,3.47818182 14.7072727,3.29272727 C14.5218182,3.10636364 14.2636364,3 14,3 Z" id="Path"></path>
        </g>
    </g>
</svg>