<svg xmlns="http://www.w3.org/2000/svg" viewBox="0 0 19.58 19.58"><title>External link</title><path d="M13.79,19.58h-11A2.79,2.79,0,0,1,0,16.79v-11A2.79,2.79,0,0,1,2.79,3h6a.79.79,0,0,1,0,1.58h-6A1.21,1.21,0,0,0,1.58,5.79v11A1.21,1.21,0,0,0,2.79,18h11A1.21,1.21,0,0,0,15,16.79v-6a.79.79,0,0,1,1.58,0v6A2.79,2.79,0,0,1,13.79,19.58ZM19.52.49A.79.79,0,0,0,18.79,0h-6A.79.79,0,0,0,12,.79a.79.79,0,0,0,.79.79h4.09L7.23,11.23a.79.79,0,0,0,0,1.12.8.8,0,0,0,1.12,0L18,2.7V6.79a.79.79,0,0,0,1.58,0v-6A.77.77,0,0,0,19.52.49Z" fill="#414141"/></svg>
