<svg width="30" height="30" xmlns="http://www.w3.org/2000/svg">
  <path d="M29.53 14.75c0 2.62-.65 5.04-1.96 7.27-1.31 2.22-3.08 3.99-5.3 5.3A14.09 14.09 0 0 1 15 29.28c-2.62 0-5.04-.65-7.27-1.96-2.22-1.31-3.99-3.08-5.3-5.3a14.09 14.09 0 0 1-1.96-7.27c0-2.62.65-5.04 1.96-7.27 1.31-2.22 3.08-3.99 5.3-5.3A14.09 14.09 0 0 1 15 .22c2.62 0 5.04.65 7.27 1.96 2.22 1.31 3.99 3.08 5.3 5.3a14.09 14.09 0 0 1 1.96 7.27zM13.3 22.43l10.78-10.79c.2-.15.3-.37.3-.64s-.1-.49-.3-.64L22.8 9a.93.93 0 0 0-1.34 0l-8.8 8.79-4.1-4.1a.93.93 0 0 0-1.34 0l-1.3 1.34c-.19.16-.29.37-.29.65 0 .27.1.49.3.64l6.1 6.1c.15.2.36.29.64.29.27 0 .48-.1.64-.3z" fill="#008000" fill-rule="evenodd"/>
</svg>
