<svg width="27" height="27" xmlns="http://www.w3.org/2000/svg">
  <path d="M24.19 26.87H3.56c-.78 0-1.44-.27-1.99-.82a2.71 2.71 0 0 1-.82-1.99V3.44c0-.78.27-1.45.82-2a2.71 2.71 0 0 1 2-.81h20.62c.78 0 1.44.27 1.99.82.55.54.82 1.2.82 1.99v20.62c0 .78-.27 1.45-.82 2-.55.54-1.21.81-2 .81zm-12.01-5.74l10.78-10.78a.93.93 0 0 0 0-1.35l-1.3-1.29a.93.93 0 0 0-1.34 0l-8.79 8.8-4.1-4.1a.93.93 0 0 0-1.35 0L4.8 13.68a.93.93 0 0 0 0 1.35l6.1 6.1c.15.19.37.29.64.29s.49-.1.65-.3z" fill="#414141" fill-rule="evenodd"/>
</svg>
