<?xml version="1.0" encoding="UTF-8"?>
<svg width="13px" height="13px" viewBox="0 0 13 13" version="1.1" xmlns="http://www.w3.org/2000/svg" xmlns:xlink="http://www.w3.org/1999/xlink">
    <!-- Generator: sketchtool 52.6 (67491) - http://www.bohemiancoding.com/sketch -->
    <title>398AC658-EFEC-4427-B716-351789DD0B77</title>
    <desc>Created with sketchtool.</desc>
    <g id="Designs-(Updates)" stroke="none" stroke-width="1" fill="none" fill-rule="evenodd">
        <g id="Resources-Landing" transform="translate(-630.000000, -640.000000)" fill="#003D57">
            <g id="Misc/-Learn-more" transform="translate(530.000000, 636.000000)">
                <g id="Group-Copy-5">
                    <path d="M105.222644,5.58205609 L105.824205,4.98049502 C105.951809,4.85289102 106.106756,4.78908923 106.289048,4.78908923 C106.471339,4.78908923 106.626286,4.85289102 106.75389,4.98049502 L112.058565,10.2851699 C112.186169,10.4127739 112.249971,10.5677211 112.249971,10.7500125 C112.249971,10.9323039 112.186169,11.0872512 112.058565,11.2148552 L106.75389,16.51953 C106.626286,16.647134 106.471339,16.7109358 106.289048,16.7109358 C106.106756,16.7109358 105.951809,16.647134 105.824205,16.51953 L105.222644,15.9179689 C105.076811,15.7903649 105.008452,15.6354177 105.017566,15.4531263 C105.026681,15.2708349 105.09504,15.1158877 105.222644,14.9882837 L108.503886,11.8437599 L100.656248,11.8437599 C100.473957,11.8437599 100.31901,11.7799581 100.191406,11.6523541 C100.063802,11.5247501 100,11.3698028 100,11.1875115 L100,10.3125136 C100,10.1302222 100.063802,9.97527492 100.191406,9.84767092 C100.31901,9.72006692 100.473957,9.65626512 100.656248,9.65626512 L108.503886,9.65626512 L105.222644,6.51174137 C105.09504,6.38413737 105.026681,6.2291901 105.017566,6.04689873 C105.008452,5.86460736 105.076811,5.70966009 105.222644,5.58205609 Z" id="Arrow-right"></path>
                </g>
            </g>
        </g>
    </g>
</svg>
