<?xml version="1.0" encoding="UTF-8"?>
<svg width="13px" height="12px" viewBox="0 0 13 12" version="1.1" xmlns="http://www.w3.org/2000/svg" xmlns:xlink="http://www.w3.org/1999/xlink">
    <!-- Generator: sketchtool 51.3 (57544) - http://www.bohemiancoding.com/sketch -->
    <title>7F8F260B-BD8F-4D6D-BA2D-359D12AB6E2E</title>
    <desc>Created with sketchtool.</desc>
    <defs></defs>
    <g id="Designs" stroke="none" stroke-width="1" fill="none" fill-rule="evenodd">
        <g id="Alumni-Home-Design-Mobile" transform="translate(-294.000000, -14.000000)" fill="#FFFFFF">
            <g id="Mobile-Menu">
                <path d="M295.187499,16.3593956 C295.059895,16.3593956 294.955078,16.3183801 294.873047,16.236349 C294.791016,16.154318 294.75,16.0495006 294.75,15.9218966 L294.75,14.8281493 C294.75,14.7005453 294.791016,14.5957279 294.873047,14.5136969 C294.955078,14.4316658 295.059895,14.3906503 295.187499,14.3906503 L306.562472,14.3906503 C306.690076,14.3906503 306.794893,14.4316658 306.876924,14.5136969 C306.958955,14.5957279 306.999971,14.7005453 306.999971,14.8281493 L306.999971,15.9218966 C306.999971,16.0495006 306.958955,16.154318 306.876924,16.236349 C306.794893,16.3183801 306.690076,16.3593956 306.562472,16.3593956 L295.187499,16.3593956 Z M295.187499,20.7343852 C295.059895,20.7343852 294.955078,20.6933696 294.873047,20.6113386 C294.791016,20.5293075 294.75,20.4244902 294.75,20.2968862 L294.75,19.2031388 C294.75,19.0755348 294.791016,18.9707175 294.873047,18.8886864 C294.955078,18.8066554 295.059895,18.7656399 295.187499,18.7656399 L306.562472,18.7656399 C306.690076,18.7656399 306.794893,18.8066554 306.876924,18.8886864 C306.958955,18.9707175 306.999971,19.0755348 306.999971,19.2031388 L306.999971,20.2968862 C306.999971,20.4244902 306.958955,20.5293075 306.876924,20.6113386 C306.794893,20.6933696 306.690076,20.7343852 306.562472,20.7343852 L295.187499,20.7343852 Z M295.187499,25.1093747 C295.059895,25.1093747 294.955078,25.0683592 294.873047,24.9863282 C294.791016,24.9042971 294.75,24.7994798 294.75,24.6718758 L294.75,23.5781284 C294.75,23.4505244 294.791016,23.3457071 294.873047,23.263676 C294.955078,23.181645 295.059895,23.1406294 295.187499,23.1406294 L306.562472,23.1406294 C306.690076,23.1406294 306.794893,23.181645 306.876924,23.263676 C306.958955,23.3457071 306.999971,23.4505244 306.999971,23.5781284 L306.999971,24.6718758 C306.999971,24.7994798 306.958955,24.9042971 306.876924,24.9863282 C306.794893,25.0683592 306.690076,25.1093747 306.562472,25.1093747 L295.187499,25.1093747 Z" id="bars"></path>
            </g>
        </g>
    </g>
</svg>