
<svg width="38px" height="32px" viewBox="0 0 38 32" version="1.1" xmlns="http://www.w3.org/2000/svg" xmlns:xlink="http://www.w3.org/1999/xlink">
    <g id="Page-1" stroke="none" stroke-width="1" fill="none" fill-rule="evenodd">
        <g id="Twitter_Logo_Blue" transform="translate(-11.000000, -14.000000)">
            <rect id="Rectangle" x="0" y="0" width="60" height="60"></rect>
            <path d="M23.043,45.2385 C37.194,45.2385 44.934,33.5145 44.934,23.3475 C44.934,23.0145 44.934,22.683 44.9115,22.353 C46.417247,21.2638663 47.7170332,19.9153191 48.75,18.3705 C47.3458186,18.9927027 45.8562439,19.400743 44.331,19.581 C45.937116,18.6194731 47.1391853,17.107158 47.7135,15.3255 C46.2032362,16.221683 44.5509692,16.853268 42.828,17.193 C40.4431242,14.6570914 36.653579,14.0364189 33.5843239,15.6790199 C30.5150688,17.3216209 28.9294125,20.8189886 29.7165,24.21 C23.5303436,23.8998743 17.7667137,20.9779849 13.86,16.1715 C11.8179341,19.6869671 12.8609818,24.1842892 16.242,26.442 C15.0176118,26.4057113 13.8199191,26.0754198 12.75,25.479 C12.75,25.5105 12.75,25.5435 12.75,25.5765 C12.7510022,29.2388895 15.3326272,32.3933027 18.9225,33.1185 C17.7898044,33.4274101 16.6013709,33.4725664 15.4485,33.2505 C16.4564219,36.3846342 19.3448618,38.5316758 22.6365,38.5935 C19.9121026,40.7346479 16.5465893,41.8969916 13.0815,41.8935 C12.4693554,41.8923248 11.8578061,41.8552612 11.25,41.7825 C14.7684539,44.0404148 18.8623701,45.2380754 23.043,45.2325" id="Path" fill="#1DA1F2" fill-rule="nonzero"></path>
        </g>
    </g>
</svg>