<?xml version="1.0" encoding="UTF-8"?>
<svg width="22px" height="15px" viewBox="0 0 22 15" version="1.1" xmlns="http://www.w3.org/2000/svg" xmlns:xlink="http://www.w3.org/1999/xlink">
    <title>Youtube logo</title>
    <g id="Designs-(Updates)" stroke="none" stroke-width="1" fill="none" fill-rule="evenodd">
        <g id="Profile-–-Basic-Info" transform="translate(-1244.000000, -1612.000000)" fill="#CD153E">
            <g id="Footer/-Desktop-V2" transform="translate(0.000000, 1553.000000)">
                <path d="M1264.98432,61.3437802 C1265.16662,62.0469035 1265.29682,63.1146091 1265.37495,64.5468975 L1265.41401,66.5000179 L1265.37495,68.4531382 C1265.29682,69.9114679 1265.16662,70.9921947 1264.98432,71.695318 C1264.85412,72.1380251 1264.61974,72.5286491 1264.2812,72.8671902 C1263.94266,73.2057313 1263.53901,73.4401057 1263.07027,73.5703135 C1262.39318,73.752605 1260.80465,73.8828128 1258.30465,73.9609376 L1254.74997,74 L1251.19529,73.9609376 C1248.6953,73.8828128 1247.10676,73.752605 1246.42968,73.5703135 C1245.96093,73.4401057 1245.55729,73.2057313 1245.21875,72.8671902 C1244.8802,72.5286491 1244.64583,72.1380251 1244.51562,71.695318 C1244.33333,70.9921947 1244.20312,69.9114679 1244.125,68.4531382 L1244.08594,66.5000179 C1244.08594,65.9271024 1244.09896,65.2760627 1244.125,64.5468975 C1244.20312,63.1146091 1244.33333,62.0469035 1244.51562,61.3437802 C1244.64583,60.8750313 1244.8802,60.4713866 1245.21875,60.1328456 C1245.55729,59.7943045 1245.96093,59.5599301 1246.42968,59.4297222 C1247.10676,59.2474308 1248.6953,59.117223 1251.19529,59.0390982 L1254.74997,59.0000358 L1258.30465,59.0390982 C1260.80465,59.117223 1262.39318,59.2474308 1263.07027,59.4297222 C1263.53901,59.5599301 1263.94266,59.7943045 1264.2812,60.1328456 C1264.61974,60.4713866 1264.85412,60.8750313 1264.98432,61.3437802 Z M1252.56248,69.7031352 L1258.1484,66.5000179 L1252.56248,63.3359629 L1252.56248,69.7031352 Z" id="youtube"></path>
            </g>
        </g>
    </g>
</svg>
