<svg xmlns="http://www.w3.org/2000/svg" viewBox="0 0 17.34 20.74"><title>Asset 4</title><path d="M11.78,0H2.62A2.63,2.63,0,0,0,0,2.62v15.5a2.63,2.63,0,0,0,2.62,2.62h12.1a2.62,2.62,0,0,0,2.62-2.62V5.58Zm-.56,1.34L16,6.13v0H12.5a1.28,1.28,0,0,1-1.28-1.28V1.34Zm3.5,18.06H2.62a1.28,1.28,0,0,1-1.28-1.28V2.62A1.28,1.28,0,0,1,2.62,1.34H9.88V4.88A2.62,2.62,0,0,0,12.5,7.5H16V18.12A1.28,1.28,0,0,1,14.72,19.4Zm-2-9.07a.72.72,0,0,1-.66.77H5.37a.72.72,0,0,1-.66-.77c0-.42.3-.77.66-.69h6.7C12.43,9.56,12.73,9.91,12.73,10.33Zm0,3.18a.73.73,0,0,1-.66.77H5.37a.73.73,0,0,1-.66-.77c0-.43.3-.77.66-.7h6.7C12.43,12.74,12.73,13.08,12.73,13.51Z" fill="#414141" /></svg>
