<?xml version="1.0" encoding="UTF-8"?>
<svg width="20px" height="17px" viewBox="0 0 20 17" version="1.1" xmlns="http://www.w3.org/2000/svg" xmlns:xlink="http://www.w3.org/1999/xlink">
    <title>Twitter logo</title>
    <g id="Designs-(Updates)" stroke="none" stroke-width="1" fill="none" fill-rule="evenodd">
        <g id="Profile-–-Boards-&amp;-Associates" transform="translate(-1278.000000, -1270.000000)" fill="#CD153E">
            <g id="Footer/-Desktop-V2" transform="translate(0.000000, 1212.000000)">
                <path d="M1295.92964,62.4375276 C1295.95569,62.5416942 1295.96871,62.7109644 1295.96871,62.9453389 C1295.96871,64.8203344 1295.51298,66.6302257 1294.60152,68.3750134 C1293.66403,70.2239671 1292.34892,71.695318 1290.65622,72.7890654 C1288.80727,74.0130206 1286.68487,74.6249985 1284.28905,74.6249985 C1281.99739,74.6249985 1279.90104,74.0130206 1278,72.7890654 C1278.28646,72.8151072 1278.61198,72.8281278 1278.97656,72.8281278 C1280.8776,72.8281278 1282.58332,72.2421917 1284.09374,71.0703195 C1283.18228,71.0703195 1282.3815,70.8033932 1281.6914,70.2695401 C1281.00129,69.7356871 1280.52604,69.0651161 1280.26562,68.2578262 C1280.52604,68.283868 1280.77343,68.2968886 1281.00781,68.2968886 C1281.37239,68.2968886 1281.73697,68.2578262 1282.10155,68.1797014 C1281.16405,67.9713687 1280.38281,67.4895987 1279.75781,66.7343923 C1279.13281,65.979186 1278.82031,65.119813 1278.82031,64.1562735 L1278.82031,64.0781487 C1279.39323,64.4166897 1280.0052,64.5989805 1280.65624,64.6250224 C1280.10937,64.2343983 1279.66666,63.7396076 1279.32812,63.1406509 C1278.98958,62.5416942 1278.82031,61.8841433 1278.82031,61.1679993 C1278.82031,60.4518554 1279.01562,59.7682633 1279.40625,59.117223 C1280.42187,60.3932618 1281.66536,61.4088844 1283.13671,62.1640907 C1284.60806,62.9192971 1286.17706,63.3359629 1287.84373,63.4140877 C1287.79164,63.1015885 1287.7656,62.7890892 1287.7656,62.47659 C1287.7656,61.7474248 1287.94789,61.0638327 1288.31248,60.4258136 C1288.67706,59.7877945 1289.17185,59.2864932 1289.79685,58.9219109 C1290.42185,58.5573287 1291.09893,58.3750373 1291.82809,58.3750373 C1292.42705,58.3750373 1292.98043,58.4922245 1293.48824,58.7265989 C1293.99606,58.9609734 1294.44527,59.2734726 1294.8359,59.6640967 C1295.7734,59.4818052 1296.64579,59.1562854 1297.45308,58.6875365 C1297.14058,59.6510761 1296.54162,60.4062824 1295.65621,60.9531561 C1296.43746,60.8489895 1297.2187,60.6276362 1297.99995,60.2890952 C1297.42704,61.1224263 1296.73693,61.8385709 1295.92964,62.4375276 Z" id="twitter"></path>
            </g>
        </g>
    </g>
</svg>
