
<svg width="12px" height="12px" viewBox="0 0 12 12" version="1.1" xmlns="http://www.w3.org/2000/svg" xmlns:xlink="http://www.w3.org/1999/xlink">
    <title>Delete</title>
    <g id="Page-1" stroke="none" stroke-width="1" fill="none" fill-rule="evenodd">
        <g id="Delete" fill="#355E7C" fill-rule="nonzero">
            <g id="Group">
                <path d="M9.24748491,11.0221328 C9.0193159,11.0221328 8.78993964,11.0221328 8.56177062,11.0221328 C8.01368209,11.0221328 7.4668008,11.0221328 6.91871227,11.0221328 C6.26438632,11.0221328 5.61006036,11.0221328 4.95452716,11.0221328 C4.39195171,11.0221328 3.82937626,11.0221328 3.2668008,11.0221328 C3.0084507,11.0221328 2.74889336,11.02334 2.49054326,11.0221328 C2.44466801,11.0221328 2.39879276,11.0185111 2.35291751,11.0136821 C2.39517103,11.0197183 2.43863179,11.0257545 2.48088531,11.0305835 C2.39517103,11.0185111 2.31187123,10.9967807 2.23098592,10.9641851 C2.26961771,10.9798793 2.3082495,10.9967807 2.34688129,11.0124748 C2.26358149,10.9774648 2.18631791,10.9327968 2.11509054,10.8772636 C2.14768612,10.9026157 2.18028169,10.9279678 2.21287726,10.9533199 C2.14647887,10.9014085 2.08732394,10.8422535 2.03541247,10.7758551 C2.06076459,10.8084507 2.0861167,10.8410463 2.11146881,10.8736419 C2.05714286,10.8024145 2.01126761,10.7251509 1.97625755,10.6418511 C1.99195171,10.6804829 2.00885312,10.7191147 2.02454728,10.7577465 C1.99195171,10.6768612 1.97022133,10.5935614 1.95814889,10.5078471 C1.96418511,10.5501006 1.97022133,10.5935614 1.9750503,10.6358149 C1.96177062,10.5283702 1.9665996,10.4185111 1.9665996,10.3110664 C1.9665996,10.1179074 1.9665996,9.92474849 1.9665996,9.73158954 C1.9665996,9.43822938 1.9665996,9.14486922 1.9665996,8.85150905 C1.9665996,8.49054326 1.9665996,8.12837022 1.9665996,7.76740443 C1.9665996,7.37142857 1.9665996,6.97545272 1.9665996,6.57947686 C1.9665996,6.17625755 1.9665996,5.77303823 1.9665996,5.37102616 C1.9665996,4.9943662 1.9665996,4.61770624 1.9665996,4.24104628 C1.9665996,3.92354125 1.9665996,3.60603622 1.9665996,3.28973843 C1.9665996,3.06036217 1.9665996,2.82977867 1.9665996,2.60040241 C1.9665996,2.4917505 1.96780684,2.38309859 1.9665996,2.27444668 C1.9665996,2.26961771 1.9665996,2.26478873 1.9665996,2.25995976 C1.80603622,2.42052314 1.64426559,2.58229376 1.48370221,2.74285714 C1.56217304,2.74285714 1.64064386,2.74285714 1.71790744,2.74285714 C1.93038229,2.74285714 2.14406439,2.74285714 2.35653924,2.74285714 C2.66921529,2.74285714 2.98309859,2.74285714 3.29577465,2.74285714 C3.67967807,2.74285714 4.06358149,2.74285714 4.44748491,2.74285714 C4.86760563,2.74285714 5.2889336,2.74285714 5.70905433,2.74285714 C6.13400402,2.74285714 6.55774648,2.74285714 6.98269618,2.74285714 C7.37867203,2.74285714 7.77464789,2.74285714 8.17062374,2.74285714 C8.50382294,2.74285714 8.83702213,2.74285714 9.17022133,2.74285714 C9.41046278,2.74285714 9.65191147,2.74285714 9.89215292,2.74285714 C10.006841,2.74285714 10.1203219,2.74406439 10.2350101,2.74285714 C10.239839,2.74285714 10.244668,2.74285714 10.249497,2.74285714 C10.0889336,2.58229376 9.92716298,2.42052314 9.7665996,2.25995976 C9.7665996,2.33480885 9.7665996,2.40965795 9.7665996,2.48450704 C9.7665996,2.6861167 9.7665996,2.8889336 9.7665996,3.09054326 C9.7665996,3.38993964 9.7665996,3.69054326 9.7665996,3.98993964 C9.7665996,4.35573441 9.7665996,4.72032193 9.7665996,5.0861167 C9.7665996,5.4832998 9.7665996,5.8804829 9.7665996,6.27887324 C9.7665996,6.68088531 9.7665996,7.08289738 9.7665996,7.48490946 C9.7665996,7.85794769 9.7665996,8.23098592 9.7665996,8.60402414 C9.7665996,8.91549296 9.7665996,9.22696177 9.7665996,9.53843058 C9.7665996,9.75935614 9.7665996,9.98148893 9.7665996,10.2024145 C9.7665996,10.3002012 9.7665996,10.3979879 9.7665996,10.4957746 C9.7665996,10.5428571 9.76418511,10.5887324 9.75814889,10.6358149 C9.76418511,10.5935614 9.77022133,10.5501006 9.7750503,10.5078471 C9.76297787,10.5935614 9.74124748,10.6768612 9.70865191,10.7577465 C9.72434608,10.7191147 9.74124748,10.6804829 9.75694165,10.6418511 C9.72193159,10.7251509 9.67726358,10.8024145 9.62173038,10.8736419 C9.64708249,10.8410463 9.67243461,10.8084507 9.69778672,10.7758551 C9.64587525,10.8422535 9.58672032,10.9014085 9.52032193,10.9533199 C9.55291751,10.9279678 9.58551308,10.9026157 9.61810865,10.8772636 C9.54688129,10.9315895 9.46961771,10.9774648 9.38631791,11.0124748 C9.4249497,10.9967807 9.46358149,10.9798793 9.50221328,10.9641851 C9.42132797,10.9967807 9.33802817,11.0185111 9.25231388,11.0305835 C9.2945674,11.0245473 9.33802817,11.0185111 9.38028169,11.0136821 C9.33682093,11.0197183 9.29215292,11.0221328 9.24748491,11.0221328 C9.12313883,11.02334 8.99396378,11.0752515 8.90583501,11.1633803 C8.82253521,11.2466801 8.75855131,11.3843058 8.76458753,11.5050302 C8.77665996,11.7645875 8.97706237,11.9903421 9.24748491,11.9879276 C9.65070423,11.9843058 10.0575453,11.8189135 10.3303823,11.5183099 C10.5851107,11.2382294 10.7311871,10.8808853 10.7336016,10.5006036 C10.7348089,10.4028169 10.7336016,10.3038229 10.7336016,10.2060362 C10.7336016,9.96096579 10.7336016,9.71589537 10.7336016,9.47203219 C10.7336016,9.1195171 10.7336016,8.76700201 10.7336016,8.41448692 C10.7336016,7.99798793 10.7336016,7.58269618 10.7336016,7.16619718 C10.7336016,6.72555332 10.7336016,6.28490946 10.7336016,5.84547284 C10.7336016,5.4193159 10.7336016,4.9943662 10.7336016,4.56820926 C10.7336016,4.20241449 10.7336016,3.83541247 10.7336016,3.46961771 C10.7336016,3.20040241 10.7336016,2.93118712 10.7336016,2.66197183 C10.7336016,2.53400402 10.7348089,2.40482897 10.7336016,2.27686117 C10.7336016,2.27082495 10.7336016,2.26599598 10.7336016,2.25995976 C10.7336016,1.99919517 10.5126761,1.77706237 10.2507042,1.77706237 C10.1722334,1.77706237 10.0937626,1.77706237 10.016499,1.77706237 C9.80402414,1.77706237 9.59034205,1.77706237 9.3778672,1.77706237 C9.06519115,1.77706237 8.75130785,1.77706237 8.43863179,1.77706237 C8.05472837,1.77706237 7.67082495,1.77706237 7.28692153,1.77706237 C6.8668008,1.77706237 6.44547284,1.77706237 6.02535211,1.77706237 C5.60040241,1.77706237 5.17665996,1.77706237 4.75171026,1.77706237 C4.35573441,1.77706237 3.95975855,1.77706237 3.5637827,1.77706237 C3.2305835,1.77706237 2.89738431,1.77706237 2.56418511,1.77706237 C2.32394366,1.77706237 2.08249497,1.77706237 1.84225352,1.77706237 C1.72756539,1.77706237 1.61408451,1.77585513 1.49939638,1.77706237 C1.4945674,1.77706237 1.48973843,1.77706237 1.48490946,1.77706237 C1.22414487,1.77706237 1.00201207,1.99798793 1.00201207,2.25995976 C1.00201207,2.51589537 1.00201207,2.77062374 1.00201207,3.02655936 C1.00201207,3.64225352 1.00201207,4.25915493 1.00201207,4.87484909 C1.00201207,5.63541247 1.00201207,6.39476861 1.00201207,7.15533199 C1.00201207,7.84587525 1.00201207,8.53641851 1.00201207,9.22575453 C1.00201207,9.62173038 1.00201207,10.016499 1.00201207,10.4124748 C1.00201207,10.6985915 1.05150905,10.9750503 1.1915493,11.2285714 C1.45231388,11.7030181 1.96901408,11.9867203 2.50503018,11.9879276 C2.87323944,11.9879276 3.24144869,11.9879276 3.60965795,11.9879276 C4.3195171,11.9879276 5.0305835,11.9879276 5.74044266,11.9879276 C6.46720322,11.9879276 7.19275654,11.9879276 7.9195171,11.9879276 C8.34205231,11.9879276 8.76458753,11.9879276 9.18591549,11.9879276 C9.20643863,11.9879276 9.22696177,11.9879276 9.24748491,11.9879276 C9.49979879,11.9879276 9.74245473,11.7657948 9.73038229,11.5050302 C9.71830986,11.2442656 9.51790744,11.0221328 9.24748491,11.0221328 Z" id="Path"></path>
                <path d="M7.27847082,0.0120724346 C7.06478873,0.0120724346 6.8498994,0.0120724346 6.6362173,0.0120724346 C6.21488934,0.0120724346 5.79235412,0.0120724346 5.37102616,0.0120724346 C5.08008048,0.0120724346 4.78913481,0.0120724346 4.49818913,0.0120724346 C4.25311871,0.0120724346 4.00080483,0.0663983903 3.79678068,0.206438632 C3.44788732,0.44305835 3.23420523,0.818511066 3.23179074,1.24346076 C3.22937626,1.57183099 3.23179074,1.90020121 3.23179074,2.22857143 C3.23179074,2.23943662 3.23179074,2.25030181 3.23179074,2.261167 C3.23179074,2.52193159 3.4527163,2.74406439 3.71468813,2.74406439 C3.85714286,2.74406439 3.99959759,2.74406439 4.14205231,2.74406439 C4.48490946,2.74406439 4.82655936,2.74406439 5.1694165,2.74406439 C5.58591549,2.74406439 6.00241449,2.74406439 6.41891348,2.74406439 C6.77746479,2.74406439 7.13480885,2.74406439 7.49336016,2.74406439 C7.66720322,2.74406439 7.84225352,2.74647887 8.01609658,2.74406439 C8.01851107,2.74406439 8.02092555,2.74406439 8.02334004,2.74406439 C8.28410463,2.74406439 8.50623742,2.52313883 8.50623742,2.261167 C8.50623742,2.02454728 8.50623742,1.78672032 8.50623742,1.5501006 C8.50623742,1.44869215 8.50623742,1.34849095 8.50623742,1.24708249 C8.50503018,0.941649899 8.39517103,0.671227364 8.20442656,0.435814889 C7.98108652,0.162977867 7.62374245,0.015694165 7.27847082,0.0120724346 C7.02615694,0.00965794769 6.78350101,0.236619718 6.79557344,0.494969819 C6.80764588,0.759356137 7.00804829,0.975452716 7.27847082,0.977867203 C7.31227364,0.977867203 7.34486922,0.98028169 7.37746479,0.983903421 C7.33521127,0.977867203 7.2917505,0.971830986 7.24949698,0.967002012 C7.31348089,0.97665996 7.3750503,0.992354125 7.43541247,1.01770624 C7.39678068,1.00201207 7.35814889,0.985110664 7.3195171,0.969416499 C7.37746479,0.994768612 7.43179074,1.02615694 7.48249497,1.06358149 C7.4498994,1.03822938 7.41730382,1.01287726 7.38470825,0.987525151 C7.43903421,1.02977867 7.4861167,1.07686117 7.52837022,1.13118712 C7.50301811,1.09859155 7.477666,1.06599598 7.45231388,1.0334004 C7.48973843,1.08410463 7.52112676,1.13843058 7.54647887,1.19637827 C7.53078471,1.15774648 7.5138833,1.11911469 7.49818913,1.0804829 C7.522334,1.14084507 7.53923541,1.20241449 7.54889336,1.26639839 C7.54285714,1.22414487 7.53682093,1.1806841 7.53199195,1.13843058 C7.54768612,1.27122736 7.53802817,1.41006036 7.53802817,1.54285714 C7.53802817,1.73480885 7.53802817,1.92796781 7.53802817,2.11991952 C7.53802817,2.16700201 7.53802817,2.21287726 7.53802817,2.25995976 C7.69859155,2.09939638 7.86036217,1.93762575 8.02092555,1.77706237 C7.87847082,1.77706237 7.7360161,1.77706237 7.59356137,1.77706237 C7.25070423,1.77706237 6.90905433,1.77706237 6.56619718,1.77706237 C6.14969819,1.77706237 5.7331992,1.77706237 5.3167002,1.77706237 C4.95814889,1.77706237 4.60080483,1.77706237 4.24225352,1.77706237 C4.06841046,1.77706237 3.89336016,1.77344064 3.7195171,1.77706237 C3.71710262,1.77706237 3.71468813,1.77706237 3.71227364,1.77706237 C3.87283702,1.93762575 4.03460765,2.09939638 4.19517103,2.25995976 C4.19517103,1.94969819 4.19517103,1.64064386 4.19517103,1.33038229 C4.19517103,1.26639839 4.19396378,1.20241449 4.20120724,1.13843058 C4.19517103,1.1806841 4.18913481,1.22414487 4.18430584,1.26639839 C4.19396378,1.20241449 4.20965795,1.14084507 4.23501006,1.0804829 C4.2193159,1.11911469 4.20241449,1.15774648 4.18672032,1.19637827 C4.21207243,1.13843058 4.24346076,1.08410463 4.28088531,1.0334004 C4.2555332,1.06599598 4.23018109,1.09859155 4.20482897,1.13118712 C4.24708249,1.07686117 4.29416499,1.02977867 4.34849095,0.987525151 C4.31589537,1.01287726 4.2832998,1.03822938 4.25070423,1.06358149 C4.30140845,1.02615694 4.35573441,0.994768612 4.41368209,0.969416499 C4.3750503,0.985110664 4.33641851,1.00201207 4.29778672,1.01770624 C4.35814889,0.993561368 4.41971831,0.97665996 4.48370221,0.967002012 C4.44144869,0.973038229 4.39798793,0.979074447 4.35573441,0.983903421 C4.46921529,0.969416499 4.58752515,0.977867203 4.70221328,0.977867203 C4.92434608,0.977867203 5.14647887,0.977867203 5.36861167,0.977867203 C5.88410463,0.977867203 6.39959759,0.977867203 6.91629779,0.977867203 C7.03581489,0.977867203 7.15653924,0.977867203 7.27605634,0.977867203 C7.52837022,0.977867203 7.77102616,0.755734406 7.75895372,0.494969819 C7.74929577,0.232997988 7.54889336,0.0120724346 7.27847082,0.0120724346 Z" id="Path"></path>
                <path d="M11.2454728,1.77706237 C11.1501006,1.77706237 11.0535211,1.77706237 10.9581489,1.77706237 C10.6973843,1.77706237 10.4366197,1.77706237 10.1758551,1.77706237 C9.79074447,1.77706237 9.40442656,1.77706237 9.0193159,1.77706237 C8.54849095,1.77706237 8.077666,1.77706237 7.60804829,1.77706237 C7.09255533,1.77706237 6.57706237,1.77706237 6.06156942,1.77706237 C5.54124748,1.77706237 5.02092555,1.77706237 4.50060362,1.77706237 C4.01529175,1.77706237 3.52997988,1.77706237 3.04466801,1.77706237 C2.63420523,1.77706237 2.22374245,1.77706237 1.81448692,1.77706237 C1.51871227,1.77706237 1.22293763,1.77706237 0.927162978,1.77706237 C0.78832998,1.77706237 0.649496982,1.77585513 0.50945674,1.77706237 C0.503420523,1.77706237 0.497384306,1.77706237 0.491348089,1.77706237 C0.239034205,1.77706237 -0.00362173038,1.99919517 0.00845070423,2.25995976 C0.0205231388,2.52193159 0.220925553,2.74285714 0.491348089,2.74285714 C0.586720322,2.74285714 0.683299799,2.74285714 0.778672032,2.74285714 C1.03943662,2.74285714 1.30020121,2.74285714 1.56096579,2.74285714 C1.94607646,2.74285714 2.33239437,2.74285714 2.71750503,2.74285714 C3.18832998,2.74285714 3.65915493,2.74285714 4.12877264,2.74285714 C4.64426559,2.74285714 5.15975855,2.74285714 5.67525151,2.74285714 C6.19557344,2.74285714 6.71589537,2.74285714 7.2362173,2.74285714 C7.72152918,2.74285714 8.20684105,2.74285714 8.69215292,2.74285714 C9.10261569,2.74285714 9.51307847,2.74285714 9.922334,2.74285714 C10.2181087,2.74285714 10.5138833,2.74285714 10.8096579,2.74285714 C10.9484909,2.74285714 11.0873239,2.74406439 11.2273642,2.74285714 C11.2334004,2.74285714 11.2394366,2.74285714 11.2454728,2.74285714 C11.4977867,2.74285714 11.7404427,2.52072435 11.7283702,2.25995976 C11.7162978,1.99798793 11.5158954,1.77706237 11.2454728,1.77706237 L11.2454728,1.77706237 Z" id="Path"></path>
                <path d="M4.80965795,9.33199195 C4.80965795,9.16901408 4.80965795,9.00603622 4.80965795,8.84426559 C4.80965795,8.45311871 4.80965795,8.06317907 4.80965795,7.67203219 C4.80965795,7.20120724 4.80965795,6.73158954 4.80965795,6.26076459 C4.80965795,5.8527163 4.80965795,5.44346076 4.80965795,5.03541247 C4.80965795,4.83742455 4.81327968,4.63943662 4.80965795,4.44144869 C4.80965795,4.43903421 4.80965795,4.43541247 4.80965795,4.43299799 C4.80965795,4.1806841 4.58752515,3.93802817 4.32676056,3.9501006 C4.06478873,3.96217304 3.84386318,4.16257545 3.84386318,4.43299799 C3.84386318,4.59597586 3.84386318,4.75895372 3.84386318,4.92072435 C3.84386318,5.31187123 3.84386318,5.70181087 3.84386318,6.09295775 C3.84386318,6.5637827 3.84386318,7.0334004 3.84386318,7.50422535 C3.84386318,7.91227364 3.84386318,8.32152918 3.84386318,8.72957746 C3.84386318,8.92756539 3.84024145,9.12555332 3.84386318,9.32354125 C3.84386318,9.32595573 3.84386318,9.32957746 3.84386318,9.33199195 C3.84386318,9.58430584 4.06599598,9.82696177 4.32676056,9.81488934 C4.58752515,9.80402414 4.80965795,9.60362173 4.80965795,9.33199195 L4.80965795,9.33199195 Z" id="Path"></path>
                <path d="M7.89054326,9.33199195 C7.89054326,9.16901408 7.89054326,9.00603622 7.89054326,8.84426559 C7.89054326,8.45311871 7.89054326,8.06317907 7.89054326,7.67203219 C7.89054326,7.20120724 7.89054326,6.73158954 7.89054326,6.26076459 C7.89054326,5.8527163 7.89054326,5.44346076 7.89054326,5.03541247 C7.89054326,4.83742455 7.89416499,4.63943662 7.89054326,4.44144869 C7.89054326,4.43903421 7.89054326,4.43541247 7.89054326,4.43299799 C7.89054326,4.1806841 7.66841046,3.93802817 7.40764588,3.9501006 C7.14567404,3.96217304 6.92474849,4.16257545 6.92474849,4.43299799 C6.92474849,4.59597586 6.92474849,4.75895372 6.92474849,4.92072435 C6.92474849,5.31187123 6.92474849,5.70181087 6.92474849,6.09295775 C6.92474849,6.5637827 6.92474849,7.0334004 6.92474849,7.50422535 C6.92474849,7.91227364 6.92474849,8.32152918 6.92474849,8.72957746 C6.92474849,8.92756539 6.92112676,9.12555332 6.92474849,9.32354125 C6.92474849,9.32595573 6.92474849,9.32957746 6.92474849,9.33199195 C6.92474849,9.58430584 7.14688129,9.82696177 7.40764588,9.81488934 C7.66961771,9.80402414 7.89054326,9.60362173 7.89054326,9.33199195 L7.89054326,9.33199195 Z" id="Path"></path>
            </g>
        </g>
    </g>
</svg>