<?xml version="1.0" encoding="UTF-8"?>
<svg width="8px" height="14px" viewBox="0 0 8 14" version="1.1" xmlns="http://www.w3.org/2000/svg" xmlns:xlink="http://www.w3.org/1999/xlink">
    <!-- Generator: sketchtool 52.5 (67469) - http://www.bohemiancoding.com/sketch -->
    <title>2BE31090-BE6C-4D59-A852-A6533B3259F8</title>
    <desc>Created with sketchtool.</desc>
    <g id="Designs-(Updates)" stroke="none" stroke-width="1" fill="none" fill-rule="evenodd">
        <g id="Profile-–-Basic-Info" transform="translate(-337.000000, -471.000000)" fill="#355E7C">
            <g id="Side-Menu" transform="translate(120.000000, 444.000000)">
                <path d="M224.758976,34.0800904 L218.914135,39.924931 C218.773537,40.0655287 218.602812,40.1358273 218.401958,40.1358273 C218.201105,40.1358273 218.030379,40.0655287 217.889782,39.924931 L217.226965,39.262114 C217.086367,39.1215163 217.011047,38.9507911 217.001004,38.7499373 C216.990962,38.5490835 217.056239,38.3783582 217.196837,38.2377605 L221.866683,33.5679137 L217.196837,28.8980668 C217.056239,28.7574691 216.990962,28.5867438 217.001004,28.38589 C217.011047,28.1850363 217.086367,28.014311 217.226965,27.8737133 L217.889782,27.2108963 C218.030379,27.0702986 218.201105,27 218.401958,27 C218.602812,27 218.773537,27.0702986 218.914135,27.2108963 L224.758976,33.0557369 C224.919658,33.1963346 225,33.3670599 225,33.5679137 C225,33.7687674 224.919658,33.9394927 224.758976,34.0800904 Z" id="Chevron-right"></path>
            </g>
        </g>
    </g>
</svg>